<?xml version="1.0" encoding="UTF-8" standalone="no"?>
<!DOCTYPE svg PUBLIC "-//W3C//DTD SVG 1.1//EN" "http://www.w3.org/Graphics/SVG/1.1/DTD/svg11.dtd">
<svg width="100%" height="100%" viewBox="0 0 227 173" version="1.1" xmlns="http://www.w3.org/2000/svg" xmlns:xlink="http://www.w3.org/1999/xlink" xml:space="preserve" xmlns:serif="http://www.serif.com/" style="fill-rule:evenodd;clip-rule:evenodd;stroke-linejoin:round;stroke-miterlimit:2;">
    <g id="AlexyPawlicki_copie" transform="matrix(1.10712,0,0,1.10712,-441.797,-232.206)">
        <path d="M572.3,284.725C566.758,284.721 562.201,280.16 562.201,274.618C562.201,269.073 566.763,264.511 572.308,264.511C577.853,264.511 582.415,269.073 582.415,274.618C582.413,280.163 577.849,284.725 572.304,284.725C572.303,284.725 572.301,284.725 572.3,284.725ZM518.167,277.336L536.738,295.89C538.815,298.997 538.443,303.168 535.849,305.859C532.849,308.735 527.427,308.553 524.291,304.872L496.534,277.138L502.559,260.854C512.859,267.275 525.975,264.391 531.996,255.524C536.978,248.188 536.48,237.634 530.119,229.962C525.947,226.38 520.603,224.448 515.105,224.534C513.905,224.571 512.713,224.736 511.548,225.027C509.02,225.742 506.689,227.025 504.732,228.778C498.505,234.226 496.306,244.878 495.488,248.558C494.18,254.343 492.483,260.034 490.409,265.591C488.373,271.066 485.793,276.323 482.709,281.284C480.034,285.4 476.225,288.656 471.744,290.66C468.749,291.968 465.525,292.671 462.258,292.729L489.426,319.873C490.615,321.255 491.269,323.019 491.269,324.842C491.269,329.023 487.828,332.463 483.648,332.463C481.63,332.463 479.692,331.661 478.264,330.236L475.597,327.572L431.343,283.356C425.888,277.137 422.877,269.141 422.877,260.868C422.877,242.162 438.271,226.768 456.977,226.768C463.668,226.768 470.214,228.738 475.794,232.43L471.053,246.444C462.788,238.574 449.699,239.244 442.604,247.234C436.06,254.603 436.214,266.405 443.493,273.98L446.081,276.566C450.941,279.456 456.062,280.812 460.881,279.704C469.007,277.836 475.742,269.016 480.341,249.504C480.558,248.584 480.752,247.678 480.934,246.74L484.984,231.64C488.511,222.713 495.546,215.611 504.439,212C517.817,206.8 534.448,210.649 543.853,222.757C550.99,232.033 552.824,244.377 548.693,255.327C543.718,267.987 531.753,276.614 518.17,277.336L518.167,277.336ZM412.5,361.296L414.424,365.666L416.573,365.666L408.848,348.39L406.8,348.39L399.052,365.664L401.149,365.664L403.074,361.294L412.501,361.294L412.5,361.296ZM411.66,359.395L403.913,359.395L407.763,350.636L411.66,359.395ZM421.507,363.788L421.507,348.39L419.533,348.39L419.533,365.664L429.083,365.664L429.083,363.792L421.507,363.792L421.507,363.788ZM444.261,350.293L444.261,348.39L432.539,348.39L432.539,365.664L444.581,365.664L444.581,363.792L434.513,363.792L434.513,357.87L443.223,357.87L443.223,355.969L434.513,355.969L434.513,350.293L444.261,350.293ZM455.563,356.681L461.437,348.39L459.118,348.39L454.306,355.052L449.543,348.39L447.223,348.39L453.121,356.78L446.779,365.663L449.099,365.663L454.306,358.433L459.562,365.663L461.931,365.663L455.563,356.681ZM471.628,359.741L478.192,348.39L476.169,348.39L470.641,357.397L465.036,348.39L462.987,348.39L469.675,359.815L469.675,365.664L471.626,365.664L471.626,359.741L471.628,359.741ZM480.289,348.39L480.289,365.664L484.682,365.664L484.682,360.802L487.816,360.802C492.233,360.802 494.775,358.458 494.775,354.411C494.775,350.561 492.233,348.39 487.816,348.39L480.289,348.39ZM484.682,351.845L487.593,351.845C489.518,351.845 490.628,352.758 490.628,354.559C490.628,356.385 489.518,357.347 487.593,357.347L484.682,357.347L484.682,351.845ZM507.508,362.48L508.742,365.664L513.431,365.664L506.155,348.39L501.642,348.39L494.191,365.664L498.705,365.664L499.962,362.48L507.514,362.48L507.508,362.48ZM506.225,359.149L501.24,359.149L503.757,352.758L506.225,359.149ZM533.37,365.664L539.07,348.39L534.579,348.39L531.248,361.098L527.867,348.39L523.573,348.39L520.267,361.098L516.886,348.39L512.197,348.39L517.849,365.664L522.389,365.664L525.646,353.72L528.854,365.664L533.37,365.664ZM545.268,361.987L545.268,348.39L540.875,348.39L540.875,365.664L552.597,365.664L552.597,361.987L545.268,361.987ZM559.334,365.664L559.334,348.39L554.939,348.39L554.939,365.664L559.334,365.664ZM571.129,348.242C565.873,348.242 561.9,351.993 561.9,356.978C561.9,362.036 565.775,365.861 570.982,365.861C573.677,365.77 576.235,364.637 578.113,362.702L575.546,359.988C574.411,361.192 572.856,361.917 571.204,362.012C568.523,361.888 566.385,359.649 566.385,356.965C566.385,354.282 568.523,352.043 571.204,351.919C572.907,352.005 574.491,352.825 575.546,354.165L578.088,351.156C576.237,349.316 573.738,348.27 571.129,348.242L571.129,348.242ZM591.611,365.664L596.867,365.664L590.032,355.546L596.448,348.39L591.362,348.39L584.749,355.867L584.749,348.39L580.357,348.39L580.357,365.664L584.749,365.664L584.749,361.419L587.042,358.878L591.611,365.664ZM603.431,365.664L603.431,348.39L599.039,348.39L599.039,365.664L603.431,365.664Z" style="fill:white;"/>
    </g>
</svg>
