<svg xmlns="http://www.w3.org/2000/svg" width="285.281" height="172.844" viewBox="0 0 285.281 172.844">
  <defs>
    <style>
      .cls-1 {
        fill: #fff;
        fill-rule: evenodd;
      }
    </style>
  </defs>
  <path id="AlexyPawlicki_copie" data-name="AlexyPawlicki copie" class="cls-1" d="M572.3,284.725a10.107,10.107,0,1,1,10.115-10.107A10.111,10.111,0,0,1,572.3,284.725Zm-54.133-7.389,18.571,18.554a7.977,7.977,0,0,1-.889,9.969c-3,2.876-8.422,2.694-11.558-.987l-27.757-27.734,6.025-16.284c10.3,6.421,23.416,3.537,29.437-5.33,4.982-7.336,4.484-17.89-1.877-25.562a22.51,22.51,0,0,0-15.014-5.428,16.8,16.8,0,0,0-3.557.493,17.266,17.266,0,0,0-6.816,3.751c-6.227,5.448-8.426,16.1-9.244,19.78a131.989,131.989,0,0,1-5.079,17.033,87.479,87.479,0,0,1-7.7,15.693,25.487,25.487,0,0,1-10.965,9.376,24.81,24.81,0,0,1-9.486,2.069l27.168,27.144a7.621,7.621,0,0,1-11.162,10.363l-2.667-2.664-44.254-44.216a34.1,34.1,0,0,1,44.451-50.926l-4.741,14.014c-8.265-7.87-21.354-7.2-28.449.79-6.544,7.369-6.39,19.171.889,26.746l2.588,2.586c4.86,2.89,9.981,4.246,14.8,3.138,8.126-1.868,14.861-10.688,19.46-30.2,0.217-.92.411-1.826,0.593-2.764l4.05-15.1A35.127,35.127,0,0,1,504.439,212c13.378-5.2,30.009-1.351,39.414,10.757a33.829,33.829,0,0,1,4.84,32.57A34.777,34.777,0,0,1,518.17,277.336Zm18.571,18.554h0Zm-105.4-12.535h0Zm-53.975,92.861,2.686,6.1h3L372.265,358.2h-2.859L358.59,382.313h2.928l2.687-6.1h13.159Zm-1.172-2.653H365.376l5.374-12.228Zm13.745,6.132V358.2h-2.755v24.113h13.331V379.7H389.937ZM421.7,360.852V358.2H405.336v24.113h16.81V379.7H408.092v-8.267h12.159v-2.653H408.092v-7.923H421.7Zm15.777,8.922,8.2-11.574h-3.238l-6.717,9.3-6.649-9.3h-3.238l8.233,11.712-8.853,12.4h3.238l7.269-10.093,7.337,10.093h3.307Zm22.426,4.272,9.163-15.846h-2.825l-7.716,12.573L450.7,358.2h-2.859l9.335,15.949v8.164H459.9v-8.267ZM471.993,358.2v24.113h6.132v-6.786H482.5c6.166,0,9.714-3.273,9.714-8.922,0-5.374-3.548-8.405-9.714-8.405H471.993Zm6.132,4.823h4.064c2.687,0,4.237,1.274,4.237,3.789,0,2.549-1.55,3.892-4.237,3.892h-4.064v-7.681Zm31.864,14.846,1.723,4.444h6.545L508.1,358.2h-6.3l-10.4,24.113h6.3l1.756-4.444h10.541Zm-1.791-4.65H501.24l3.513-8.922Zm37.893,9.094,7.957-24.113h-6.269l-4.65,17.74-4.72-17.74h-5.994L527.8,375.94l-4.72-17.74h-6.545l7.889,24.113h6.338l4.547-16.672,4.478,16.672h6.3ZM562.7,377.18V358.2h-6.132v24.113h16.363V377.18H562.7Zm19.635,5.133V358.2H576.2v24.113h6.131Zm16.466-24.32c-7.337,0-12.883,5.236-12.883,12.195,0,7.061,5.408,12.4,12.677,12.4a14.557,14.557,0,0,0,9.955-4.409l-3.583-3.789a9.041,9.041,0,0,1-6.062,2.825,7.052,7.052,0,0,1,0-14.089,8.25,8.25,0,0,1,6.062,3.135l3.548-4.2A14,14,0,0,0,598.8,357.993Zm28.592,24.32h7.337l-9.542-14.123,8.957-9.99h-7.1l-9.231,10.437V358.2h-6.132v24.113h6.132v-5.925l3.2-3.548Zm16.5,0V358.2h-6.132v24.113h6.132Z" transform="translate(-358.594 -209.75)"/>
</svg>
