<?xml version="1.0" encoding="UTF-8" standalone="no"?>
<!DOCTYPE svg PUBLIC "-//W3C//DTD SVG 1.1//EN" "http://www.w3.org/Graphics/SVG/1.1/DTD/svg11.dtd">
<svg width="100%" height="100%" viewBox="0 0 177 136" version="1.1" xmlns="http://www.w3.org/2000/svg" xmlns:xlink="http://www.w3.org/1999/xlink" xml:space="preserve" xmlns:serif="http://www.serif.com/" style="fill-rule:evenodd;clip-rule:evenodd;stroke-linejoin:round;stroke-miterlimit:2;">
    <g transform="matrix(1,0,0,1,-26.3786,-0.0010917)">
        <g transform="matrix(1.10712,0,0,1.10712,-441.797,-232.206)">
            <path d="M572.3,284.725C566.758,284.721 562.201,280.16 562.201,274.618C562.201,269.073 566.763,264.511 572.308,264.511C577.853,264.511 582.415,269.073 582.415,274.618C582.413,280.163 577.849,284.725 572.304,284.725L572.3,284.725ZM518.167,277.336L536.738,295.89C538.815,298.997 538.443,303.168 535.849,305.859C532.849,308.735 527.427,308.553 524.291,304.872L496.534,277.138L502.559,260.854C512.859,267.275 525.975,264.391 531.996,255.524C536.978,248.188 536.48,237.634 530.119,229.962C525.947,226.38 520.603,224.448 515.105,224.534C513.905,224.571 512.713,224.736 511.548,225.027C509.02,225.742 506.689,227.025 504.732,228.778C498.505,234.226 496.306,244.878 495.488,248.558C494.18,254.343 492.483,260.034 490.409,265.591C488.373,271.066 485.793,276.323 482.709,281.284C480.034,285.4 476.225,288.656 471.744,290.66C468.749,291.968 465.525,292.671 462.258,292.729L489.426,319.873C490.615,321.255 491.269,323.019 491.269,324.842C491.269,329.023 487.828,332.463 483.648,332.463C481.63,332.463 479.692,331.661 478.264,330.236L475.597,327.572L431.343,283.356C425.888,277.137 422.877,269.141 422.877,260.868C422.877,242.162 438.271,226.768 456.977,226.768C463.668,226.768 470.214,228.738 475.794,232.43L471.053,246.444C462.788,238.574 449.699,239.244 442.604,247.234C436.06,254.603 436.214,266.405 443.493,273.98L446.081,276.566C450.941,279.456 456.062,280.812 460.881,279.704C469.007,277.836 475.742,269.016 480.341,249.504C480.558,248.584 480.752,247.678 480.934,246.74L484.984,231.64C488.511,222.713 495.546,215.611 504.439,212C517.817,206.8 534.448,210.649 543.853,222.757C550.99,232.033 552.824,244.377 548.693,255.327C543.718,267.987 531.753,276.614 518.17,277.336L518.167,277.336Z" style="fill:white;"/>
        </g>
    </g>
</svg>
