<svg xmlns="http://www.w3.org/2000/svg" width="343" height="69.531" viewBox="0 0 343 69.531">
  <defs>
    <style>
      .cls-1 {
        fill: #fff;
        fill-rule: evenodd;
      }
    </style>
  </defs>
  <path id="AlexyPawlicki_copie_2" data-name="AlexyPawlicki copie 2" class="cls-1" d="M399.166,101.49a5.729,5.729,0,1,1,5.734-5.729A5.732,5.732,0,0,1,399.166,101.49ZM368.483,97.3l10.526,10.517a4.521,4.521,0,0,1-.5,5.65,4.585,4.585,0,0,1-6.551-.559L356.22,97.19l3.416-9.231c5.836,3.64,13.272,2.005,16.685-3.021a12.186,12.186,0,0,0-1.063-14.489,12.762,12.762,0,0,0-8.511-3.077,9.52,9.52,0,0,0-2.016.28,9.774,9.774,0,0,0-3.863,2.126c-3.53,3.088-4.777,9.126-5.24,11.212a74.893,74.893,0,0,1-2.879,9.655,49.623,49.623,0,0,1-4.367,8.895,14.445,14.445,0,0,1-6.216,5.315,14.061,14.061,0,0,1-5.377,1.173l15.4,15.386a4.32,4.32,0,0,1-6.327,5.874l-1.512-1.511c-23.239-23.218-24.983-24.96-25.084-25.062a19.327,19.327,0,0,1,25.2-28.866l-2.688,7.944A11.041,11.041,0,1,0,326.153,95.4l1.467,1.466c2.755,1.638,5.657,2.407,8.387,1.779,4.606-1.059,8.424-6.058,11.031-17.118,0.123-.521.233-1.035,0.336-1.566l2.295-8.559A19.911,19.911,0,0,1,360.7,60.268a19.654,19.654,0,0,1,22.34,6.1,19.172,19.172,0,0,1,2.744,18.461A19.711,19.711,0,0,1,368.483,97.3Zm10.526,10.517h0Zm-59.744-7.106s0,0,0,0h0A0,0,0,0,1,319.265,100.713Zm114.886-1.9,2.251,5.109h2.512l-9.036-20.207h-2.4l-9.064,20.207h2.454l2.251-5.109h11.028Zm-0.982-2.223h-9.064l4.5-10.248Zm11.519,5.138V83.713h-2.31V103.92H453.55v-2.194h-8.862ZM471.3,85.936V83.713H457.592V103.92h14.087v-2.194H459.9V94.8h10.191V92.575H459.9V85.936h11.4Zm13.222,7.477,6.87-9.7h-2.714l-5.629,7.794-5.571-7.794h-2.714l6.9,9.815-7.419,10.392h2.713l6.091-8.458,6.149,8.458h2.771Zm18.793,3.58L511,83.713H508.63L502.164,94.25l-6.553-10.537h-2.4l7.823,13.366v6.841h2.281V96.992Zm10.133-13.279V103.92h5.138V98.233h3.667c5.167,0,8.14-2.742,8.14-7.477,0-4.5-2.973-7.044-8.14-7.044h-8.8Zm5.138,4.041H522c2.251,0,3.55,1.068,3.55,3.175,0,2.136-1.3,3.262-3.55,3.262H518.59V87.755Zm26.7,12.441,1.443,3.724h5.485l-8.516-20.207h-5.283l-8.718,20.207h5.283l1.472-3.724h8.834Zm-1.5-3.9h-5.831l2.945-7.477Zm31.756,7.621,6.668-20.207h-5.254l-3.9,14.867L569.11,83.713h-5.023L560.219,98.58l-3.955-14.867h-5.485l6.611,20.207H562.7l3.81-13.972,3.753,13.972h5.283Zm13.915-4.3V83.713h-5.139V103.92h13.712v-4.3h-8.573Zm16.455,4.3V83.713h-5.139V103.92h5.139Zm13.8-20.38c-6.148,0-10.8,4.388-10.8,10.219a10.262,10.262,0,0,0,10.623,10.392,12.2,12.2,0,0,0,8.343-3.695l-3-3.175a7.577,7.577,0,0,1-5.081,2.367,5.91,5.91,0,0,1,0-11.807,6.915,6.915,0,0,1,5.081,2.627l2.973-3.522A11.734,11.734,0,0,0,619.716,83.54Zm23.961,20.38h6.149l-8-11.835,7.506-8.371h-5.947l-7.736,8.747V83.713h-5.139V103.92h5.139V98.955l2.684-2.973Zm13.828,0V83.713h-5.138V103.92h5.138Z" transform="translate(-314.5 -58.969)"/>
</svg>
