<?xml version="1.0" encoding="UTF-8" standalone="no"?>
<!DOCTYPE svg PUBLIC "-//W3C//DTD SVG 1.1//EN" "http://www.w3.org/Graphics/SVG/1.1/DTD/svg11.dtd">
<svg width="100%" height="100%" viewBox="0 0 96 96" version="1.1" xmlns="http://www.w3.org/2000/svg" xmlns:xlink="http://www.w3.org/1999/xlink" xml:space="preserve" xmlns:serif="http://www.serif.com/" style="fill-rule:evenodd;clip-rule:evenodd;stroke-linejoin:round;stroke-miterlimit:2;">
    <g transform="matrix(1,0,0,1,-864.511,-2612.97)">
        <g transform="matrix(1,0,0,3.63088,-5.68434e-14,0)">
            <g transform="matrix(1.34043,0,0,0.369173,483.263,-117.859)">
                <path d="M355.545,2274.58C355.545,2271.29 352.87,2268.61 349.576,2268.61L290.392,2268.61C287.098,2268.61 284.423,2271.29 284.423,2274.58L284.423,2333.76C284.423,2337.06 287.098,2339.73 290.392,2339.73L349.576,2339.73C352.87,2339.73 355.545,2337.06 355.545,2333.76L355.545,2274.58Z" style="fill:rgb(255,166,104);"/>
                <clipPath id="_clip1">
                    <path d="M355.545,2274.58C355.545,2271.29 352.87,2268.61 349.576,2268.61L290.392,2268.61C287.098,2268.61 284.423,2271.29 284.423,2274.58L284.423,2333.76C284.423,2337.06 287.098,2339.73 290.392,2339.73L349.576,2339.73C352.87,2339.73 355.545,2337.06 355.545,2333.76L355.545,2274.58Z"/>
                </clipPath>
                <g clip-path="url(#_clip1)">
                    <g transform="matrix(0.746032,0,0,0.746032,-360.529,319.251)">
                        <path d="M918.179,2596.68L872.003,2563.44L799.257,2664.5L854.878,2704.54L891.276,2653.98L938.161,2753.46C938.244,2753.63 938.429,2753.69 938.573,2753.59L940.965,2751.9C941.11,2751.8 941.159,2751.57 941.076,2751.39L893.625,2650.71L902.135,2638.89L949.552,2739.5C949.636,2739.68 949.82,2739.74 949.964,2739.64L952.357,2737.94C952.501,2737.84 952.55,2737.62 952.467,2737.44L904.484,2635.63L912.994,2623.81L960.944,2725.55C961.027,2725.72 961.211,2725.78 961.355,2725.68L963.748,2723.99C963.892,2723.89 963.942,2723.66 963.859,2723.49L915.342,2620.54L923.853,2608.72L972.335,2711.59C972.418,2711.77 972.603,2711.83 972.747,2711.73L975.14,2710.03C975.284,2709.93 975.333,2709.71 975.25,2709.53L926.201,2605.46L927.624,2603.48L924.061,2600.92L917.087,2586.12C917.004,2585.94 916.819,2585.88 916.675,2585.99L914.282,2587.68C914.138,2587.78 914.089,2588.01 914.172,2588.18L918.179,2596.68Z" style="fill:rgb(201,39,76);"/>
                    </g>
                </g>
            </g>
        </g>
    </g>
</svg>
