<?xml version="1.0" encoding="UTF-8" standalone="no"?>
<!DOCTYPE svg PUBLIC "-//W3C//DTD SVG 1.1//EN" "http://www.w3.org/Graphics/SVG/1.1/DTD/svg11.dtd">
<svg width="100%" height="100%" viewBox="0 0 96 96" version="1.1" xmlns="http://www.w3.org/2000/svg" xmlns:xlink="http://www.w3.org/1999/xlink" xml:space="preserve" xmlns:serif="http://www.serif.com/" style="fill-rule:evenodd;clip-rule:evenodd;stroke-linejoin:round;stroke-miterlimit:2;">
    <g transform="matrix(1,0,0,1,-1436.39,-2272.68)">
        <g transform="matrix(1,0,0,3.63088,-5.68434e-14,0)">
            <g transform="matrix(1.34043,0,0,0.369173,1055.14,-211.582)">
                <path d="M355.545,2274.58C355.545,2271.29 352.87,2268.61 349.576,2268.61L290.392,2268.61C287.098,2268.61 284.423,2271.29 284.423,2274.58L284.423,2333.76C284.423,2337.06 287.098,2339.73 290.392,2339.73L349.576,2339.73C352.87,2339.73 355.545,2337.06 355.545,2333.76L355.545,2274.58Z" style="fill:rgb(95,216,251);"/>
                <clipPath id="_clip1">
                    <path d="M355.545,2274.58C355.545,2271.29 352.87,2268.61 349.576,2268.61L290.392,2268.61C287.098,2268.61 284.423,2271.29 284.423,2274.58L284.423,2333.76C284.423,2337.06 287.098,2339.73 290.392,2339.73L349.576,2339.73C352.87,2339.73 355.545,2337.06 355.545,2333.76L355.545,2274.58Z"/>
                </clipPath>
                <g clip-path="url(#_clip1)">
                    <g transform="matrix(0.746032,0,0,0.746032,-787.167,573.123)">
                        <path d="M1464.89,2327.88C1464.63,2328.11 1464.46,2328.41 1464.39,2328.73L1462.45,2332.07C1462.08,2332.7 1462.2,2333.47 1462.69,2333.97C1462.72,2334.05 1462.76,2334.12 1462.8,2334.2L1484.72,2371.83C1485.16,2372.59 1486.13,2372.85 1486.89,2372.41L1488.39,2371.55C1489.15,2371.12 1489.41,2370.15 1488.97,2369.4L1470.17,2337.13C1470.31,2337.1 1470.43,2337.04 1470.56,2336.97L1471.42,2336.48L1535.28,2336.48C1536.15,2336.48 1536.86,2335.77 1536.86,2334.9L1536.86,2333.2C1536.86,2332.33 1536.15,2331.62 1535.28,2331.62L1497.03,2331.62L1482.88,2307.33C1482.83,2307.23 1482.76,2307.14 1482.68,2307.06L1502.53,2272.99C1502.97,2272.23 1502.71,2271.27 1501.95,2270.83L1500.45,2269.97C1499.69,2269.54 1498.72,2269.8 1498.28,2270.56L1464.89,2327.88ZM1448.83,2249.59C1448.07,2249.15 1447.09,2249.41 1446.65,2250.17L1400.38,2329.61C1399.93,2330.36 1400.19,2331.33 1400.95,2331.76L1433.24,2350.24C1434,2350.68 1434.98,2350.41 1435.42,2349.66L1481.69,2270.22C1482.13,2269.46 1481.87,2268.5 1481.12,2268.06L1448.83,2249.59ZM1471.18,2326.8L1473.99,2331.62L1493.44,2331.62L1480.91,2310.11L1471.18,2326.8Z" style="fill:rgb(27,114,191);"/>
                    </g>
                </g>
            </g>
        </g>
    </g>
</svg>
