<?xml version="1.0" encoding="UTF-8" standalone="no"?>
<!DOCTYPE svg PUBLIC "-//W3C//DTD SVG 1.1//EN" "http://www.w3.org/Graphics/SVG/1.1/DTD/svg11.dtd">
<svg width="100%" height="100%" viewBox="0 0 96 96" version="1.1" xmlns="http://www.w3.org/2000/svg" xmlns:xlink="http://www.w3.org/1999/xlink" xml:space="preserve" xmlns:serif="http://www.serif.com/" style="fill-rule:evenodd;clip-rule:evenodd;stroke-linejoin:round;stroke-miterlimit:2;">
    <g transform="matrix(1,0,0,1,-1436.08,-2612.97)">
        <g transform="matrix(1,0,0,3.63088,-5.68434e-14,0)">
            <g transform="matrix(1.34043,0,0,0.369173,1054.83,-117.859)">
                <path d="M355.545,2274.58C355.545,2271.29 352.87,2268.61 349.576,2268.61L290.392,2268.61C287.098,2268.61 284.423,2271.29 284.423,2274.58L284.423,2333.76C284.423,2337.06 287.098,2339.73 290.392,2339.73L349.576,2339.73C352.87,2339.73 355.545,2337.06 355.545,2333.76L355.545,2274.58Z" style="fill:rgb(1,33,105);"/>
                <clipPath id="_clip1">
                    <path d="M355.545,2274.58C355.545,2271.29 352.87,2268.61 349.576,2268.61L290.392,2268.61C287.098,2268.61 284.423,2271.29 284.423,2274.58L284.423,2333.76C284.423,2337.06 287.098,2339.73 290.392,2339.73L349.576,2339.73C352.87,2339.73 355.545,2337.06 355.545,2333.76L355.545,2274.58Z"/>
                </clipPath>
                <g clip-path="url(#_clip1)">
                    <g transform="matrix(0.953017,0,0,3.46029,-973.76,-233.659)">
                        <g transform="matrix(-0.371254,-0.314181,4.14195,-0.371254,-1176.25,1432.21)">
                            <g transform="matrix(2.0025,0.551518,-1.23767,0.340872,2038.99,-895.5)">
                                <rect x="1304.36" y="2637.57" width="4.484" height="54.146" style="fill:white;"/>
                            </g>
                            <g transform="matrix(0.707107,0.194748,-1.23767,0.340872,3731.55,-429.344)">
                                <rect x="1304.36" y="2637.57" width="4.484" height="54.146" style="fill:rgb(201,20,49);"/>
                            </g>
                        </g>
                        <g transform="matrix(0.371535,-0.314156,-4.14162,-0.371535,3890.68,1432.38)">
                            <g transform="matrix(2.0025,0.551518,-1.23767,0.340872,2038.99,-895.5)">
                                <rect x="1304.36" y="2637.57" width="4.484" height="54.146" style="fill:white;"/>
                            </g>
                            <g transform="matrix(0.707107,0.194748,-1.23767,0.340872,3731.55,-429.344)">
                                <rect x="1304.36" y="2637.57" width="4.484" height="54.146" style="fill:rgb(201,20,49);"/>
                            </g>
                        </g>
                        <g transform="matrix(0.452814,-0.277701,-3.66101,-0.452814,3427.86,1442.5)">
                            <g transform="matrix(1.31127,0.361144,-1.23767,0.340872,2942.15,-646.758)">
                                <rect x="1304.36" y="2637.57" width="4.484" height="54.146" style="fill:white;"/>
                            </g>
                            <g transform="matrix(0.707107,0.194748,-0.888354,0.244666,2788.37,-170.748)">
                                <rect x="1304.36" y="2637.57" width="4.484" height="54.146" style="fill:rgb(201,20,49);"/>
                            </g>
                            <g transform="matrix(0.707107,0.194748,-0.888354,0.244666,2809.7,-174.291)">
                                <rect x="1304.36" y="2637.57" width="4.484" height="54.146" style="fill:rgb(201,20,49);"/>
                            </g>
                        </g>
                        <g transform="matrix(1,0,0,0.275415,0,0)">
                            <path d="M1369.05,2651.41L1369.05,2625.63L1346,2625.63L1346,2651.41L1320.21,2651.41L1320.21,2674.47L1346,2674.47L1346,2700.26L1369.05,2700.26L1369.05,2674.47L1394.84,2674.47L1394.84,2651.41L1369.05,2651.41Z" style="fill:white;"/>
                        </g>
                        <g transform="matrix(1,0,0,0.275415,-0.00659736,0.00763831)">
                            <path d="M1364.07,2656.38L1364.07,2625.6L1351,2625.6L1351,2656.38L1320.22,2656.38L1320.22,2669.45L1351,2669.45L1351,2700.23L1364.07,2700.23L1364.07,2669.45L1394.85,2669.45L1394.85,2656.38L1364.07,2656.38Z" style="fill:rgb(201,20,49);"/>
                        </g>
                    </g>
                </g>
            </g>
        </g>
    </g>
</svg>
