<?xml version="1.0" encoding="UTF-8" standalone="no"?>
<!DOCTYPE svg PUBLIC "-//W3C//DTD SVG 1.1//EN" "http://www.w3.org/Graphics/SVG/1.1/DTD/svg11.dtd">
<svg width="100%" height="100%" viewBox="0 0 96 96" version="1.1" xmlns="http://www.w3.org/2000/svg" xmlns:xlink="http://www.w3.org/1999/xlink" xml:space="preserve" xmlns:serif="http://www.serif.com/" style="fill-rule:evenodd;clip-rule:evenodd;stroke-miterlimit:1.5;">
    <g transform="matrix(1,0,0,1,-292.947,-2612.97)">
        <g transform="matrix(1,0,0,3.63088,-5.68434e-14,0)">
            <g transform="matrix(1.34043,0,0,0.369173,-88.3015,-117.859)">
                <path d="M355.545,2274.58C355.545,2271.29 352.87,2268.61 349.576,2268.61L290.392,2268.61C287.098,2268.61 284.423,2271.29 284.423,2274.58L284.423,2333.76C284.423,2337.06 287.098,2339.73 290.392,2339.73L349.576,2339.73C352.87,2339.73 355.545,2337.06 355.545,2333.76L355.545,2274.58Z" style="fill:rgb(27,114,191);"/>
                <clipPath id="_clip1">
                    <path d="M355.545,2274.58C355.545,2271.29 352.87,2268.61 349.576,2268.61L290.392,2268.61C287.098,2268.61 284.423,2271.29 284.423,2274.58L284.423,2333.76C284.423,2337.06 287.098,2339.73 290.392,2339.73L349.576,2339.73C352.87,2339.73 355.545,2337.06 355.545,2333.76L355.545,2274.58Z"/>
                </clipPath>
                <g clip-path="url(#_clip1)">
                    <g transform="matrix(0.735275,0,0,0.746032,68.8043,319.251)">
                        <rect x="272.259" y="2603.65" width="69.355" height="113.774" style="fill:rgb(227,63,55);"/>
                    </g>
                    <g transform="matrix(0.956516,0,0,0.956516,-121.497,-461.402)">
                        <path d="M434.966,2895.56L435.746,2901.96L445.277,2905.4L454.964,2901.96L454.964,2888.84L434.186,2888.84L433.406,2877.2L458.167,2877.2" style="fill:none;stroke:white;stroke-width:5.89px;"/>
                    </g>
                    <g transform="matrix(1.05247,0,0,3.82139,-168.787,-738.978)">
                        <g transform="matrix(1,0,0,0.275415,0,0)">
                            <path d="M466.063,2878.62L489.984,2878.62L488.258,2901.84L479.714,2904.25L470.394,2900.63L470.394,2895.71" style="fill:none;stroke:white;stroke-width:5.35px;"/>
                        </g>
                        <g transform="matrix(1,0,0,0.275415,1.13687e-13,-3.13111e-14)">
                            <path d="M467.524,2888.98L489.035,2888.98" style="fill:none;stroke:white;stroke-width:5.35px;"/>
                        </g>
                    </g>
                </g>
            </g>
        </g>
    </g>
</svg>
