<?xml version="1.0" encoding="UTF-8" standalone="no"?>
<!DOCTYPE svg PUBLIC "-//W3C//DTD SVG 1.1//EN" "http://www.w3.org/Graphics/SVG/1.1/DTD/svg11.dtd">
<svg width="100%" height="100%" viewBox="0 0 96 96" version="1.1" xmlns="http://www.w3.org/2000/svg" xmlns:xlink="http://www.w3.org/1999/xlink" xml:space="preserve" xmlns:serif="http://www.serif.com/" style="fill-rule:evenodd;clip-rule:evenodd;stroke-linejoin:round;stroke-miterlimit:2;">
    <g transform="matrix(1,0,0,1,-864.667,-2272.68)">
        <g transform="matrix(1,0,0,3.63088,-5.68434e-14,0)">
            <g transform="matrix(1.34043,0,0,0.369173,483.419,-211.582)">
                <path d="M355.545,2274.58C355.545,2271.29 352.87,2268.61 349.576,2268.61L290.392,2268.61C287.098,2268.61 284.423,2271.29 284.423,2274.58L284.423,2333.76C284.423,2337.06 287.098,2339.73 290.392,2339.73L349.576,2339.73C352.87,2339.73 355.545,2337.06 355.545,2333.76L355.545,2274.58Z" style="fill:rgb(254,208,37);"/>
            </g>
            <g transform="matrix(0.783148,0,0,0.233787,736.631,103.095)">
                <g transform="matrix(67.146,0,0,67.146,211.321,2338.78)">
                    <path d="M0.13,0.015C0.109,0.015 0.087,0.013 0.065,0.009C0.042,0.005 0.024,-0 0.012,-0.006L0.012,-0.137C0.022,-0.132 0.035,-0.129 0.05,-0.126C0.065,-0.123 0.081,-0.122 0.096,-0.122C0.126,-0.122 0.148,-0.129 0.163,-0.143C0.178,-0.157 0.185,-0.179 0.185,-0.209L0.185,-0.699L0.337,-0.699L0.337,-0.195C0.337,-0.13 0.319,-0.079 0.283,-0.042C0.247,-0.004 0.196,0.015 0.13,0.015Z" style="fill:rgb(22,25,37);fill-rule:nonzero;"/>
                </g>
                <g transform="matrix(67.146,0,0,67.146,237.306,2338.78)">
                    <path d="M0.262,0.015C0.219,0.015 0.177,0.011 0.135,0.003C0.093,-0.005 0.059,-0.016 0.032,-0.029L0.032,-0.163C0.067,-0.146 0.104,-0.133 0.142,-0.124C0.18,-0.115 0.216,-0.111 0.251,-0.111C0.29,-0.111 0.319,-0.118 0.339,-0.131C0.359,-0.144 0.369,-0.163 0.369,-0.187C0.369,-0.204 0.364,-0.219 0.354,-0.231C0.344,-0.243 0.33,-0.254 0.311,-0.264C0.292,-0.273 0.262,-0.286 0.223,-0.302C0.158,-0.329 0.11,-0.359 0.081,-0.392C0.052,-0.425 0.037,-0.465 0.037,-0.514C0.037,-0.553 0.048,-0.588 0.069,-0.619C0.09,-0.649 0.12,-0.672 0.159,-0.689C0.198,-0.706 0.242,-0.714 0.293,-0.714C0.334,-0.714 0.371,-0.711 0.403,-0.704C0.435,-0.697 0.466,-0.687 0.497,-0.673L0.497,-0.543C0.438,-0.572 0.38,-0.587 0.321,-0.587C0.284,-0.587 0.254,-0.581 0.233,-0.568C0.212,-0.555 0.201,-0.536 0.201,-0.512C0.201,-0.495 0.206,-0.48 0.216,-0.469C0.226,-0.458 0.24,-0.448 0.258,-0.439C0.276,-0.43 0.305,-0.418 0.346,-0.401C0.393,-0.381 0.43,-0.362 0.457,-0.344C0.484,-0.325 0.503,-0.304 0.516,-0.279C0.529,-0.254 0.535,-0.223 0.535,-0.186C0.535,-0.123 0.512,-0.073 0.467,-0.038C0.421,-0.003 0.353,0.015 0.262,0.015Z" style="fill:rgb(22,25,37);fill-rule:nonzero;"/>
                </g>
            </g>
        </g>
    </g>
</svg>
