<?xml version="1.0" encoding="UTF-8" standalone="no"?>
<!DOCTYPE svg PUBLIC "-//W3C//DTD SVG 1.1//EN" "http://www.w3.org/Graphics/SVG/1.1/DTD/svg11.dtd">
<svg width="100%" height="100%" viewBox="0 0 96 96" version="1.1" xmlns="http://www.w3.org/2000/svg" xmlns:xlink="http://www.w3.org/1999/xlink" xml:space="preserve" xmlns:serif="http://www.serif.com/" style="fill-rule:evenodd;clip-rule:evenodd;stroke-linejoin:round;stroke-miterlimit:2;">
    <g transform="matrix(1,0,0,1,-292.947,-2272.68)">
        <g transform="matrix(1,0,0,3.63088,-5.68434e-14,0)">
            <g transform="matrix(1.34043,0,0,0.369173,-88.3015,-211.582)">
                <path d="M355.545,2274.58C355.545,2271.29 352.87,2268.61 349.576,2268.61L290.392,2268.61C287.098,2268.61 284.423,2271.29 284.423,2274.58L284.423,2333.76C284.423,2337.06 287.098,2339.73 290.392,2339.73L349.576,2339.73C352.87,2339.73 355.545,2337.06 355.545,2333.76L355.545,2274.58Z" style="fill:rgb(27,114,191);"/>
            </g>
            <g transform="matrix(0.738492,0,0,0.233787,160.846,97.6487)">
                <g transform="matrix(67.146,0,0,67.146,207.527,2338.78)">
                    <path d="M0.06,-0.699L0.34,-0.699C0.417,-0.699 0.478,-0.679 0.525,-0.638C0.571,-0.597 0.594,-0.542 0.594,-0.471C0.594,-0.398 0.571,-0.342 0.525,-0.304C0.479,-0.265 0.417,-0.246 0.339,-0.246L0.187,-0.246L0.187,-0L0.06,-0L0.06,-0.699ZM0.324,-0.351C0.419,-0.351 0.467,-0.391 0.467,-0.471C0.467,-0.553 0.419,-0.594 0.324,-0.594L0.187,-0.594L0.187,-0.351L0.324,-0.351Z" style="fill:rgb(95,216,251);fill-rule:nonzero;"/>
                </g>
                <g transform="matrix(67.146,0,0,67.146,245.733,2338.78)">
                    <path d="M0.247,0.015C0.212,0.015 0.175,0.011 0.136,0.003C0.097,-0.005 0.066,-0.016 0.044,-0.03L0.044,-0.137C0.07,-0.121 0.101,-0.108 0.137,-0.099C0.173,-0.089 0.207,-0.084 0.239,-0.084C0.271,-0.084 0.294,-0.087 0.309,-0.093C0.324,-0.098 0.331,-0.109 0.331,-0.124C0.331,-0.136 0.327,-0.146 0.32,-0.154C0.312,-0.161 0.3,-0.168 0.282,-0.174C0.266,-0.181 0.239,-0.189 0.204,-0.198C0.164,-0.209 0.133,-0.221 0.11,-0.233C0.086,-0.245 0.069,-0.26 0.058,-0.279C0.046,-0.297 0.04,-0.321 0.04,-0.35C0.04,-0.398 0.059,-0.434 0.097,-0.459C0.135,-0.483 0.186,-0.495 0.251,-0.495C0.284,-0.495 0.318,-0.492 0.35,-0.486C0.384,-0.479 0.409,-0.47 0.428,-0.459L0.428,-0.356C0.408,-0.368 0.384,-0.378 0.355,-0.385C0.326,-0.392 0.297,-0.396 0.267,-0.396C0.234,-0.396 0.21,-0.393 0.193,-0.387C0.176,-0.38 0.168,-0.368 0.168,-0.35C0.168,-0.338 0.172,-0.329 0.182,-0.322C0.191,-0.315 0.202,-0.309 0.217,-0.304C0.232,-0.299 0.258,-0.291 0.297,-0.281C0.338,-0.27 0.371,-0.257 0.394,-0.244C0.417,-0.231 0.434,-0.215 0.444,-0.196C0.454,-0.177 0.459,-0.154 0.459,-0.126C0.459,-0.083 0.441,-0.049 0.405,-0.024C0.368,0.002 0.316,0.015 0.247,0.015Z" style="fill:rgb(95,216,251);fill-rule:nonzero;"/>
                </g>
            </g>
        </g>
    </g>
</svg>
