<?xml version="1.0" encoding="UTF-8" standalone="no"?>
<!DOCTYPE svg PUBLIC "-//W3C//DTD SVG 1.1//EN" "http://www.w3.org/Graphics/SVG/1.1/DTD/svg11.dtd">
<svg width="100%" height="100%" viewBox="0 0 49 49" version="1.1" xmlns="http://www.w3.org/2000/svg" xmlns:xlink="http://www.w3.org/1999/xlink" xml:space="preserve" xmlns:serif="http://www.serif.com/" style="fill-rule:evenodd;clip-rule:evenodd;stroke-linejoin:round;stroke-miterlimit:2;">
    <g transform="matrix(1,0,0,1,-1820.47,-3187.4)">
        <g transform="matrix(1,0,0,3.63088,0,0)">
            <g transform="matrix(0.896946,0,0,0.247032,352.648,8.98168)">
                <path d="M1638.32,3571.6C1637.86,3571.57 1637.4,3571.37 1637.05,3571.02C1636.28,3570.24 1636.28,3568.98 1637.05,3568.21L1639.97,3565.29C1639.88,3564.12 1640.03,3560.99 1643.18,3555.7L1643.27,3555.61L1643.18,3555.57L1662.58,3536.51L1680.87,3518.31C1680.87,3518.31 1682.08,3518.18 1684.13,3519.6L1685.81,3517.92C1686.69,3517.04 1688.12,3517.04 1689,3517.92L1689.99,3518.91C1690.87,3519.79 1690.87,3521.22 1689.99,3522.1L1688.31,3523.78C1689.85,3525.96 1690.02,3527.45 1690.02,3527.45L1671.56,3545.91C1671.56,3545.91 1662.09,3554.43 1652.58,3564.72L1652.56,3564.67L1652.37,3564.88C1647.09,3568.02 1643.97,3568.18 1642.79,3568.09L1642.11,3568.77C1653.22,3568.72 1666.2,3567.5 1674.42,3566.14C1675.54,3565.95 1676.56,3565.77 1677.47,3565.59C1676.52,3565.51 1675.44,3565.43 1674.3,3565.4C1666.97,3565.17 1663.18,3564.72 1661.52,3564.23C1659.96,3563.76 1659.51,3562.92 1659.42,3562.42C1659.3,3561.77 1659.58,3560.81 1660.76,3560.17C1662.47,3559.24 1667.03,3558.41 1667.03,3558.41C1667.84,3558.26 1668.62,3558.81 1668.76,3559.63C1668.9,3560.44 1668.36,3561.22 1667.54,3561.36L1665.63,3561.89C1667.67,3562.1 1670.51,3562.28 1674.4,3562.4C1678.28,3562.52 1680.77,3562.77 1682.11,3563.09C1683.03,3563.31 1683.58,3563.62 1683.85,3563.88C1684.43,3564.42 1684.53,3565.02 1684.39,3565.6C1684.29,3566.01 1683.98,3566.57 1683.19,3567.01C1682.04,3567.65 1679.05,3568.41 1674.91,3569.1C1665.78,3570.61 1650.84,3571.95 1638.96,3571.75C1638.73,3571.75 1638.52,3571.69 1638.32,3571.6Z" style="fill:white;"/>
            </g>
        </g>
    </g>
</svg>
