<?xml version="1.0" encoding="UTF-8" standalone="no"?>
<!DOCTYPE svg PUBLIC "-//W3C//DTD SVG 1.1//EN" "http://www.w3.org/Graphics/SVG/1.1/DTD/svg11.dtd">
<svg width="100%" height="100%" viewBox="0 0 56 56" version="1.1" xmlns="http://www.w3.org/2000/svg" xmlns:xlink="http://www.w3.org/1999/xlink" xml:space="preserve" xmlns:serif="http://www.serif.com/" style="fill-rule:evenodd;clip-rule:evenodd;stroke-linejoin:round;stroke-miterlimit:2;">
    <g transform="matrix(1,0,0,1,-549.275,-3515.02)">
        <g transform="matrix(1,0,0,3.63088,0,-86.7663)">
            <g transform="matrix(0.356056,0,0,0.0980633,386.615,638.213)">
                <path d="M579.223,3630.57L579.347,3627.57C579.347,3627.57 592.935,3616.66 597.983,3607.94C598.431,3606.9 599.647,3608.62 599.647,3608.62C599.647,3608.62 601.291,3610.11 602.865,3610.84C603.569,3610.84 605.423,3610.98 606.797,3612.35C607.965,3613.52 608.47,3614.86 608.687,3615.86C608.705,3615.88 608.717,3615.9 608.723,3615.93C609.112,3617.7 611.275,3620.09 611.275,3620.09C611.275,3620.09 612.992,3621.31 611.959,3621.75C603.233,3626.8 592.324,3640.39 592.324,3640.39L589.384,3640.51L539.579,3692.56C538.133,3694 538.405,3698.45 541.423,3700.6C543.469,3702.05 545.588,3702.21 549.684,3701.53C554.37,3700.75 552.291,3705.25 552.291,3705.25C552.291,3705.25 549.014,3710.73 535.366,3714.81C530.686,3716.21 530.315,3722.24 530.315,3722.24C530.67,3737.17 527.637,3746.97 521.765,3752.47C516.419,3759.54 494.411,3769.68 474.839,3755.52C472.715,3753.98 468.881,3750.38 468.881,3750.38C464.04,3746.05 460.914,3740.34 458.62,3733.97C458.62,3733.97 456.871,3730.28 456.839,3722.24C456.734,3696.1 482.382,3690.54 482.382,3690.54C482.382,3690.54 484.615,3689.76 489.641,3689.9C496.202,3690.07 498.966,3689.81 500.433,3688.34C504.211,3684.56 506.31,3677.32 506.31,3677.32C506.31,3677.32 508.934,3666.93 517.224,3665.88C525.515,3664.83 534.564,3670.99 534.564,3670.99L535.954,3672.14L579.223,3630.57Z" style="fill:white;"/>
            </g>
        </g>
    </g>
</svg>
