<?xml version="1.0" encoding="UTF-8" standalone="no"?>
<!DOCTYPE svg PUBLIC "-//W3C//DTD SVG 1.1//EN" "http://www.w3.org/Graphics/SVG/1.1/DTD/svg11.dtd">
<svg width="100%" height="100%" viewBox="0 0 57 48" version="1.1" xmlns="http://www.w3.org/2000/svg" xmlns:xlink="http://www.w3.org/1999/xlink" xml:space="preserve" xmlns:serif="http://www.serif.com/" style="fill-rule:evenodd;clip-rule:evenodd;stroke-linecap:round;stroke-linejoin:bevel;stroke-miterlimit:6;">
    <g transform="matrix(1,0,0,1,-1095.23,-3522.87)">
        <g transform="matrix(1,0,0,3.63088,0,-86.7663)">
            <g transform="matrix(0.601752,0,0,0.601752,461.629,395.372)">
                <g transform="matrix(1,0,0,0.275415,0,0.0762956)">
                    <path d="M1099.6,3630.22C1106.31,3630.22 1111.75,3635.66 1111.75,3642.37C1111.75,3649.07 1106.31,3654.51 1099.6,3654.51C1092.9,3654.51 1087.46,3649.07 1087.46,3642.37C1087.46,3635.66 1092.9,3630.22 1099.6,3630.22ZM1106.42,3642.37L1095.49,3648.08L1095.49,3636.66L1106.42,3642.37Z" style="fill:white;"/>
                </g>
                <g transform="matrix(1,0,0,0.275415,0,0)">
                    <path d="M1141.41,3619.91C1141.41,3618.81 1140.52,3617.91 1139.41,3617.91L1059.91,3617.91C1058.8,3617.91 1057.91,3618.81 1057.91,3619.91L1057.91,3666.32C1057.91,3667.42 1058.8,3668.32 1059.91,3668.32L1139.41,3668.32C1140.52,3668.32 1141.41,3667.42 1141.41,3666.32L1141.41,3619.91ZM1099.6,3619.91C1112.15,3619.91 1122.34,3630.1 1122.34,3642.64C1122.34,3655.19 1112.15,3665.38 1099.6,3665.38C1087.05,3665.38 1076.87,3655.19 1076.87,3642.64C1076.87,3630.1 1087.05,3619.91 1099.6,3619.91Z" style="fill:white;stroke:white;stroke-width:9.97px;"/>
                </g>
                <g transform="matrix(1,0,0,1,-1.35169,-1.37708)">
                    <g transform="matrix(0.463528,0,0,0.321318,590.824,-169.733)">
                        <path d="M1141.41,3695.35C1141.41,3694.56 1139.81,3693.92 1137.83,3693.92L1063.25,3693.92C1061.27,3693.92 1059.66,3694.56 1059.66,3695.35C1059.66,3696.13 1061.27,3696.77 1063.25,3696.77L1137.83,3696.77C1139.81,3696.77 1141.41,3696.13 1141.41,3695.35Z" style="fill:white;"/>
                    </g>
                    <g transform="matrix(0.622355,0,0,0.260794,416.086,53.5655)">
                        <path d="M1084.1,3694.94C1084.1,3695.22 1084.44,3695.44 1084.86,3695.44L1116.03,3695.44C1116.45,3695.44 1116.8,3695.22 1116.8,3694.94C1116.8,3694.94 1107.05,3695.43 1107.05,3687.45L1107.05,3672.06C1107.05,3671.95 1106.91,3671.86 1106.74,3671.86L1094.15,3671.86C1093.98,3671.86 1093.85,3671.95 1093.85,3672.06L1093.85,3687.45C1093.85,3695.47 1084.1,3694.94 1084.1,3694.94Z" style="fill:white;"/>
                    </g>
                </g>
            </g>
        </g>
    </g>
</svg>
