<?xml version="1.0" encoding="UTF-8" standalone="no"?>
<!DOCTYPE svg PUBLIC "-//W3C//DTD SVG 1.1//EN" "http://www.w3.org/Graphics/SVG/1.1/DTD/svg11.dtd">
<svg width="100%" height="100%" viewBox="0 0 24 24" version="1.1" xmlns="http://www.w3.org/2000/svg" xmlns:xlink="http://www.w3.org/1999/xlink" xml:space="preserve" xmlns:serif="http://www.serif.com/" style="fill-rule:evenodd;clip-rule:evenodd;stroke-linecap:round;stroke-linejoin:round;stroke-miterlimit:1.5;">
    <rect x="0" y="0" width="24" height="24" style="fill:none;fill-rule:nonzero;"/>
    <g transform="matrix(0.913169,0,0,1.06925,1.04198,-0.79638)">
        <g transform="matrix(-1,0,0,0.922924,24.2563,0.886374)">
            <path d="M2.115,11.5C5.832,4.75 12.256,4.996 12.256,4.996" style="fill:none;stroke:rgb(22,25,37);stroke-width:2.1px;"/>
        </g>
        <g transform="matrix(1,0,0,0.922924,-0.256254,0.886374)">
            <path d="M2.115,11.5C5.858,4.701 12.256,4.996 12.256,4.996" style="fill:none;stroke:rgb(22,25,37);stroke-width:2.1px;"/>
        </g>
    </g>
    <g transform="matrix(-0.913169,1.30945e-16,-1.11831e-16,-1.06925,22.958,23.7964)">
        <g transform="matrix(-1,0,0,0.922924,24.2563,0.886374)">
            <path d="M2.115,11.5C5.832,4.75 12.256,4.996 12.256,4.996" style="fill:none;stroke:rgb(22,25,37);stroke-width:2.1px;"/>
        </g>
        <g transform="matrix(1,0,0,0.922924,-0.256254,0.886374)">
            <path d="M2.115,11.5C5.858,4.701 12.256,4.996 12.256,4.996" style="fill:none;stroke:rgb(22,25,37);stroke-width:2.1px;"/>
        </g>
    </g>
    <g transform="matrix(1.18447,0,0,1.18447,-1.69155,-2.90186)">
        <path d="M11.559,9.041C13.28,9.041 14.677,10.438 14.677,12.159C14.677,13.88 13.28,15.277 11.559,15.277C9.838,15.277 8.441,13.88 8.441,12.159C8.441,10.438 9.838,9.041 11.559,9.041ZM11.559,10.6C12.42,10.6 13.118,11.298 13.118,12.159C13.118,13.019 12.42,13.718 11.559,13.718C10.699,13.718 10,13.019 10,12.159C10,11.298 10.699,10.6 11.559,10.6Z" style="fill:rgb(22,25,37);"/>
    </g>
</svg>
