<?xml version="1.0" encoding="UTF-8" standalone="no"?>
<!DOCTYPE svg PUBLIC "-//W3C//DTD SVG 1.1//EN" "http://www.w3.org/Graphics/SVG/1.1/DTD/svg11.dtd">
<svg width="100%" height="100%" viewBox="0 0 19 19" version="1.1" xmlns="http://www.w3.org/2000/svg" xmlns:xlink="http://www.w3.org/1999/xlink" xml:space="preserve" xmlns:serif="http://www.serif.com/" style="fill-rule:evenodd;clip-rule:evenodd;stroke-linejoin:round;stroke-miterlimit:2;">
    <g transform="matrix(1,0,0,1,-2.77421,-2.77421)">
        <path d="M18.774,18.774L5.226,18.774C5.226,18.774 5.226,5.226 5.226,5.226C5.226,5.226 10,5.226 10,5.226C10.125,5.226 10.226,5.125 10.226,5L10.226,3C10.226,2.875 10.125,2.774 10,2.774L5,2.774C3.765,2.774 2.774,3.776 2.774,5L2.774,19C2.774,20.224 3.765,21.226 5,21.226L19,21.226C20.224,21.226 21.226,20.224 21.226,19L21.226,14C21.226,13.875 21.125,13.774 21,13.774L19,13.774C18.875,13.774 18.774,13.875 18.774,14L18.774,18.774ZM14,2.774C13.875,2.774 13.774,2.875 13.774,3L13.774,5C13.774,5.125 13.875,5.226 14,5.226L17.045,5.226C17.045,5.226 7.6,14.67 7.6,14.67C7.512,14.759 7.512,14.901 7.6,14.99L9.01,16.4C9.099,16.488 9.241,16.488 9.33,16.4L18.774,6.955C18.774,6.955 18.774,10 18.774,10C18.774,10.125 18.875,10.226 19,10.226L21,10.226C21.125,10.226 21.226,10.125 21.226,10L21.226,3C21.226,2.875 21.125,2.774 21,2.774L14,2.774Z" style="fill:rgb(254,173,19);fill-rule:nonzero;"/>
    </g>
</svg>
