<?xml version="1.0" encoding="UTF-8" standalone="no"?>
<!DOCTYPE svg PUBLIC "-//W3C//DTD SVG 1.1//EN" "http://www.w3.org/Graphics/SVG/1.1/DTD/svg11.dtd">
<svg width="100%" height="100%" viewBox="0 0 1406 877" version="1.1" xmlns="http://www.w3.org/2000/svg" xmlns:xlink="http://www.w3.org/1999/xlink" xml:space="preserve" xmlns:serif="http://www.serif.com/" style="fill-rule:evenodd;clip-rule:evenodd;stroke-linejoin:round;stroke-miterlimit:2;">
    <g transform="matrix(1,0,0,1,0,-36)">
        <g id="Plan-de-travail1" serif:id="Plan de travail1" transform="matrix(1.02478,0,0,0.997725,-298.211,-12.8885)">
            <rect x="291" y="49" width="1372" height="879" style="fill:none;"/>
            <g id="Shapes" transform="matrix(0.975818,0,0,1.00228,7.03698,-2.11631)">
                <g>
                    <g id="Star" transform="matrix(1,0,0,1,-1.5,0)">
                        <path d="M1019.87,139L1099,139L1035.14,185.05L1060,260L995,214L930,260L955.016,184.566L892,139L970.128,139L995,64L1019.87,139Z"/>
                    </g>
                    <g transform="matrix(1,0,0,1,-2.25785,15)">
                        <g id="Ornement">
                            <g id="Ornement2">
                                <g transform="matrix(1.63826,0,0,1.63826,-41.0409,-136.87)">
                                    <path d="M550,204C542.184,200.455 535.419,197.449 528.309,195.747C498.096,188.516 472.68,194 472.68,194C472.68,194 459.249,196.174 441.205,199.652C419.546,204.445 396.712,207.443 387.3,208.68C377.051,210.027 338.6,216.271 307.434,210.408C297.652,208.568 288.113,206.021 281,201C279.859,200.194 280.759,198.818 283.448,199.8C285.421,200.347 288,201 288,201C288,201 306.572,207.781 332.27,204.192C337.091,203.51 341.86,202.497 346.542,201.161C383.45,190.662 390,190 390,190C390,190 402.717,187.662 408,193C413.738,198.798 424.579,195.811 430.137,194.866C436.503,193.783 449.982,190.65 475.896,185.779C501.81,180.908 520.707,185.528 533.339,189.388C546.262,193.337 550,196 550,196"/>
                                </g>
                                <g transform="matrix(-1.63826,0,0,1.63826,2033.56,-136.87)">
                                    <path d="M550,204C542.184,200.455 535.419,197.449 528.309,195.747C498.096,188.516 472.68,194 472.68,194C472.68,194 459.249,196.174 441.205,199.652C419.546,204.445 396.712,207.443 387.3,208.68C377.051,210.027 338.6,216.271 307.434,210.408C297.652,208.568 288.113,206.021 281,201C279.859,200.194 280.759,198.818 283.448,199.8C285.421,200.347 288,201 288,201C288,201 306.572,207.781 332.27,204.192C337.091,203.51 341.86,202.497 346.542,201.161C383.45,190.662 390,190 390,190C390,190 402.717,187.662 408,193C413.738,198.798 424.579,195.811 430.137,194.866C436.503,193.783 449.982,190.65 475.896,185.779C501.81,180.908 520.707,185.528 533.339,189.388C546.262,193.337 550,196 550,196"/>
                                </g>
                            </g>
                        </g>
                    </g>
                </g>
                <g id="Wood" transform="matrix(1,0,0,1,35.3974,0)">
                    <g id="Wood--cut-out-" serif:id="Wood (cut-out)">
                        <path id="Wood1" serif:id="Wood" d="M1470,595L1353,603C1344.23,603.933 1335.45,604.867 1326.65,605.453C1315.18,606.218 1290.28,604.308 1276.41,609.65C1270.82,611.805 1265.35,614.296 1260,617C1256.53,618.754 1250.91,621.926 1247.07,622.498C1242.66,623.48 1207.31,626.099 1186,628C1177.51,628.758 1169.02,630.678 1160.59,631.975C1156,632.68 1151.62,633.553 1147,634C1137.7,634.9 1128.34,635.95 1119,636C1116.6,636.054 1117.14,632.381 1119.28,631.647C1130.42,627.805 1141.67,624.259 1153,622C1169.27,618.756 1184.77,618.653 1201.07,614.966C1211.15,612.689 1217.12,612.284 1227.05,610.446C1231.23,609.673 1235.07,607.625 1239,606C1239.55,605.773 1248.16,602.945 1245.41,602.264C1243.18,601.711 1237.69,603.106 1236.34,603.264C1228.89,604.134 1227.44,604.024 1220,605C1210.33,606.269 1200.66,607.635 1191,609L1175,612C1169.66,612.995 1162.26,612.991 1156,614C1149.51,615.047 1143.26,617.277 1136.95,619.133C1131.92,620.612 1126.96,622.306 1122,624C1118.35,625.368 1114.69,626.737 1111,628C1108.28,628.93 1105.35,629.29 1102.78,630.575C1097.96,632.982 1093.68,636.337 1089,639C1079.42,644.449 1066.67,645.018 1056.22,645.602C1048.16,646.052 1040.07,646.026 1032,646C1016.33,648.296 1000.65,650.591 985,653C965.59,655.986 965.571,654.118 946,656C935.581,657.002 925.394,659.765 915,661C891.714,663.767 868.354,665.884 845,668C823.648,669.001 802.281,670.003 781,672C772.732,672.776 764.669,675.03 756.464,676.308C734.35,679.753 712.293,676.628 690.019,677.918C653.294,680.046 651.712,681.599 620.726,681.489C583.369,681.356 547.111,679.625 509.86,683.616C471.529,687.723 471.784,688.713 433.437,691.835C421.31,692.822 409.153,693.411 397,694L332,703C332.068,670.333 332.136,637.666 332,605C331.99,602.492 332.46,599.829 331.559,597.488C329.673,592.584 324.781,589.257 322.775,584.402C321.891,582.261 321.382,579.959 321.078,577.663C321.005,577.115 320.957,576.564 320.928,576.012C320.673,572.152 319.805,568.357 318.359,564.77C317.183,561.684 315.975,558.611 314.851,555.508C312.45,548.884 309.177,539.386 309,532C308.896,527.68 311.029,520.961 312.649,516.992C313.626,514.6 314.815,512.297 316,510C316,510 315.878,507.984 316.57,507.462C317.931,506.436 319.505,505.649 321.142,505.176C324.688,504.15 328.389,503.765 332,503C338.226,501.68 344.444,500.321 350.661,498.955C351.213,498.833 351.619,498.36 351.653,497.794C351.688,497.229 351.344,496.71 350.81,496.521C343.591,493.973 329.037,488.837 323.351,486.83C321.848,486.299 320.623,485.183 319.955,483.736C318.503,480.591 315.97,475.101 315.217,473.47C315.073,473.159 314.989,472.824 314.968,472.483C314.792,469.647 314.627,466.806 314.656,463.965C314.683,461.24 314.779,458.502 315.175,455.805C316.893,444.105 321.359,432.977 324.344,421.535C325.838,415.808 327.171,410.039 328.485,404.268C328.785,402.949 329.974,402.025 331.326,402.06C342.451,402.348 389.688,403.571 389.688,403.571C389.688,403.571 474.046,395.236 499.921,392.987C514.902,391.684 544.94,390.073 544.94,390.073L660.499,379.873C664.311,378.922 668.127,377.971 671.888,376.832C684.477,373.019 695.593,366.323 707.862,361.605C710.818,360.467 713.918,359.732 717,359C725.291,357.134 733.596,355.265 742,354C752.337,352.445 764.235,351.169 774.948,352.461C781.91,353.3 781.565,354.848 788.702,354.526C793.374,354.315 798.018,353.653 802.652,353.023C809.12,352.144 815.561,351.072 822,350C844.199,348.67 866.4,347.34 888.581,345.734C922.69,343.265 954.584,339.048 988.034,333.393C993.627,332.447 999.272,331.814 1004.92,331.266C1010.93,330.682 1016.97,330.341 1023,330C1030.61,328.07 1038.24,326.133 1046,325C1051.25,324.234 1056.6,324.323 1061.91,324.323C1065.62,324.323 1069.31,324.662 1073,325C1085.32,323.244 1097.64,321.489 1110,320C1117.18,319.135 1124.38,318.539 1131.59,317.942C1134.85,316.943 1138.12,315.938 1141.49,315.37C1147.14,314.413 1152.86,313.792 1158.59,313.377C1168.38,312.668 1178.2,312.498 1188,312C1212.63,310.75 1237.28,309.669 1261.89,308.134C1274.34,307.357 1286.75,306.211 1299.17,305.065C1299.17,305.065 1318.83,304.171 1328,301C1338.64,297.323 1357.12,288.191 1363,301C1364.53,307.649 1366.94,311.79 1370.01,310.045C1374.28,307.609 1371.26,293.342 1371.26,293.342C1371.26,293.342 1372.16,292.001 1372.88,291.942C1379.9,291.361 1386.95,291.217 1394,291C1464.12,288.837 1463.96,289.303 1534,285C1546.49,284.233 1558.98,283.259 1571.48,282.619C1579.42,282.213 1583.88,282.037 1591.84,281.862C1591.84,281.862 1598.16,280.998 1598.52,285C1598.99,290.436 1594.88,299.096 1594.33,301C1590.3,315.114 1588.16,319.675 1588.95,333.841C1590.07,353.795 1608.55,368.03 1604.11,388.429C1601.05,402.468 1592.22,412.252 1591.84,427.35C1591.18,453.681 1597.67,470.246 1602,498C1605.31,519.252 1603.1,528.659 1603,552C1602.98,556.761 1604.15,568.056 1605.49,571.995C1606.97,576.34 1611.47,584.828 1604.11,586L1470,595ZM605,663C612.734,664.365 707,661 707,661C724.655,659.213 742.312,657.425 760,656C764.319,655.652 768.689,656.161 772.995,655.683C786.354,654.199 785.917,652.473 799.231,651.109C810.203,649.986 826.539,649.642 837.488,648.331C842.919,647.681 850.875,648.757 853.272,643.84C853.564,643.242 852.125,643.073 851.464,642.997C849.655,642.788 847.818,642.894 846,643C838.306,643.244 830.611,643.489 822.926,643.932C797.208,645.416 797.536,647.239 772,650C767.029,650.537 761.993,650.268 757,650C741.037,652.279 725.06,654.561 709,656C696.244,657.143 683.422,657.498 670.617,657.74C665.739,657.832 660.861,657.415 656,657C656,657 616.346,654.4 605,661C601.47,662.253 601.873,663.198 605,663ZM420.997,448.997C420.998,448.996 420.998,448.995 420.998,448.995C421.002,448.984 422.06,440.523 422.636,435.913C422.846,434.232 424.231,432.944 425.923,432.854C435.474,432.365 465.689,430.717 475,429C486.113,426.951 512,425 512,425C512,425 572.627,426.169 560,483C552.039,518.831 515,535 515,535C516.49,540.307 547.628,584.755 557.137,598.255C560.411,602.895 564.944,606.501 570.202,608.645C573.527,609.996 577.523,611.019 582,611C589.796,609.969 590,612 590,612L588.9,622.544C588.9,622.544 590.401,624.212 562,629C541.599,632.44 523,593 523,593L494,544L467,545L466.575,605.575C466.575,605.575 466.58,618.183 479,617.488L487.005,617.488C487.507,617.488 487.985,617.706 488.316,618.085C488.646,618.463 488.796,618.967 488.728,619.465C488.34,622.278 486.916,632.248 486.818,632.25C481.641,632.337 477.005,632.396 473.092,632.503C459.383,633.109 431.736,634.826 417.468,637.943C417.07,638.037 417.286,636.572 417.366,636.171C418.004,632.979 419.301,626.496 419.799,624.005C419.919,623.406 420.423,622.959 421.032,622.91C423.311,622.68 428.956,621.846 433.85,619.079C440.507,615.315 443.891,610.86 444,589C444.178,553.106 444.01,459.301 444,454.215C444,453.866 443.973,453.518 443.92,453.173C443.446,450.673 441.333,443.465 431.85,446C421.998,448.633 421.07,448.956 421.001,448.995L421,449C421,449 420.992,449.001 420.997,448.997ZM800.433,592.835C800.565,592.173 800.386,591.487 799.947,590.974C799.507,590.461 798.857,590.178 798.182,590.207C773.033,591.398 769,569 769,569L745.548,494.907C745.548,494.907 724.347,422.309 719.837,406.866C719.619,406.12 719.104,405.495 718.413,405.139C717.722,404.783 716.914,404.725 716.18,404.981C710.038,407.117 696,412 696,412L633,582C633,582 627.834,603.589 610,605.575C608.165,605.779 607.423,621.617 607.423,621.617C607.423,621.617 654.099,613.392 687,616C687,616 687.245,607.826 687.383,603.227C687.406,602.471 687.102,601.743 686.549,601.228C685.997,600.713 685.249,600.461 684.497,600.536C677.504,601.392 660.288,603.18 656,601C656,601 647.304,598.649 651,585C654.259,572.964 662.657,550.272 664.596,545.078C664.847,544.41 665.429,543.922 666.131,543.793C673.255,542.507 712.278,535.65 733,536L746,580C746,580 749.08,590.945 737.285,595C729.235,597.768 722.231,598.624 718.962,598.886C717.866,598.942 717.005,599.848 717.005,600.946C717,605.004 717,614 717,614C717,614 766.868,604.291 798,605C798,605 799.563,597.183 800.433,592.835ZM895.702,392.625C899.307,400.011 973.265,522.701 985.87,542.48C986.17,542.951 986.689,543.237 987.246,543.204C987.804,543.171 988.297,542.832 988.528,542.323C990.433,520.114 993,407 993,407C993,407 993.573,396.921 980,400L970,401C970,401 971.353,393.785 972.241,389.045C972.688,386.666 974.692,384.894 977.108,384.743C985.746,384.203 1005,383 1005,383C1005,383 1020.13,380.869 1028.77,379.692C1030.06,379.528 1031.36,379.941 1032.31,380.822C1033.27,381.702 1033.79,382.959 1033.73,384.257C1033.48,387.6 1033.15,391.473 1033,393C1033,393 1016.02,394.433 1012,409C1008.43,421.939 1005.03,610.155 1005.53,611.415C1004.96,611.415 996.909,612.975 994,615C989.131,606.026 940,520 940,520C940,520 921.137,484.906 907,467C895.698,452.685 884.571,439.528 880.563,434.827C880.315,434.538 879.915,434.432 879.557,434.561C879.199,434.689 878.957,435.025 878.949,435.405C878.562,453.706 876.094,570.251 876.094,570.251C876.094,570.251 873.427,585.595 891.064,581.719C893.442,581.265 895.772,580.952 897.692,580.741C898.807,580.621 899.916,581.024 900.693,581.834C901.47,582.644 901.827,583.768 901.661,584.878C900.973,589.502 900,596 900,596C900,596 875.379,594.386 837,603C837,603 837.827,596.799 838.417,592.371C838.742,589.934 840.483,587.924 842.847,587.253C848.338,585.681 857.769,580.671 858,565C858.326,542.87 862,425 862,425C862,425 863.05,411.161 844,410C836.95,409.57 833.649,409.415 833.649,409.415C834.497,403.357 835.447,399.876 836.118,397.986C836.765,396.795 838.009,396.051 839.364,396.044C846.046,395.992 864.917,395.888 870,395C870.15,394.974 870.318,394.964 870.503,394.969C876.56,394.167 882.357,392.198 888.095,389.961C890.941,388.867 894.365,389.885 895.702,392.625ZM1170.52,573.24C1151.08,574.882 1134.2,572.318 1119.89,565.549C1105.58,558.779 1094.47,548.432 1086.57,534.507C1078.67,520.583 1074.71,503.752 1074.71,484.015C1074.71,468.058 1077.49,453.073 1083.05,439.061C1088.6,425.049 1096.39,412.632 1106.43,401.811C1116.47,390.989 1128.28,382.276 1141.84,375.671C1155.4,369.065 1170.3,365.077 1186.54,363.706C1193.16,363.146 1199.78,362.954 1206.4,363.13C1213.02,363.305 1219,363.692 1224.34,364.291C1229.68,364.889 1234.01,365.416 1237.32,365.871C1240.63,366.326 1242.29,366.554 1242.29,366.554L1243.57,368.335C1243.57,368.335 1243.03,370.743 1241.96,375.557C1240.9,380.372 1239.72,386.822 1238.44,394.909C1237.16,402.996 1236.2,411.896 1235.56,421.609L1220.18,424.168C1220.18,424.168 1220.34,422.422 1220.66,418.931C1220.98,415.439 1221.14,412.014 1221.14,408.654C1221.14,398.786 1217.24,391.766 1209.44,387.596C1201.65,383.425 1189.85,382.008 1174.04,383.343C1159.73,384.552 1147.29,388.963 1136.71,396.575C1126.14,404.188 1117.97,414.326 1112.2,426.992C1106.43,439.657 1103.55,454.388 1103.55,471.185C1103.55,489.662 1106.6,505.52 1112.68,518.758C1118.77,531.997 1127.31,541.983 1138.31,548.717C1149.32,555.452 1162.18,558.196 1176.92,556.951C1191.45,555.724 1203.14,550.694 1212.01,541.861C1220.87,533.029 1227.33,519.937 1231.39,502.587L1246.77,500.028C1246.77,500.028 1246.45,501.63 1245.81,504.833C1245.17,508.037 1244.37,512.252 1243.41,517.477C1242.44,522.702 1241.48,528.348 1240.52,534.413C1239.56,540.478 1238.76,546.372 1238.12,552.096L1236.2,555.092C1236.2,555.092 1233.37,556.381 1227.71,558.959C1222.05,561.537 1214.3,564.291 1204.48,567.221C1194.65,570.151 1183.33,572.157 1170.52,573.24ZM1300.28,562.276L1302.2,547.626C1312.24,544.888 1318.91,541.542 1322.23,537.588C1325.54,533.634 1327.19,527.248 1327.19,518.429L1327.51,386.124C1327.51,379.405 1326.77,374.954 1325.27,372.771C1323.77,370.587 1320.57,369.703 1315.66,370.118C1314.38,370.227 1312.67,370.423 1310.53,370.709C1308.39,370.994 1306.47,371.314 1304.76,371.669L1304.12,370.463L1306.37,356.416C1311.28,356.211 1317.31,355.911 1324.47,355.516C1331.62,355.122 1337.44,354.735 1341.93,354.356C1345.99,354.013 1351.28,353.304 1357.79,352.228C1364.31,351.153 1370.45,349.952 1376.21,348.625L1374.93,362.906C1368.95,364.251 1364.52,365.833 1361.63,367.651C1358.75,369.469 1356.83,372.256 1355.87,376.012C1354.91,379.768 1354.21,385.443 1353.79,393.038L1351.86,444.222L1405.69,439.989C1412.74,439.393 1419.68,438.597 1426.52,437.599C1433.35,436.602 1442.22,435.013 1453.11,432.833L1453.43,375.485C1453.43,368.766 1452.68,364.315 1451.19,362.132C1449.69,359.949 1446.49,359.065 1441.58,359.48C1440.08,359.606 1438.32,359.807 1436.29,360.084C1434.26,360.36 1432.39,360.676 1430.68,361.03L1430.04,359.824L1432.28,345.777C1432.28,345.777 1434.21,345.72 1438.05,345.605C1441.9,345.49 1446.28,345.277 1451.19,344.967C1456.1,344.657 1460.27,344.358 1463.68,344.069C1468.38,343.672 1474.36,342.904 1481.63,341.766C1488.89,340.627 1495.72,339.367 1502.13,337.986L1500.85,352.267C1492.95,353.984 1487.66,356.163 1484.99,358.804C1482.32,361.444 1480.77,365.826 1480.34,371.951C1479.7,384.184 1479.12,396.989 1478.58,410.367C1478.05,423.744 1477.57,436.803 1477.14,449.542C1476.71,462.281 1476.39,473.909 1476.18,484.425C1475.96,494.941 1475.86,503.559 1475.86,510.278C1475.86,518.046 1476.82,523.162 1478.74,525.624C1480.66,528.086 1484.4,529.083 1489.96,528.613C1492.31,528.415 1494.87,528.093 1497.65,527.649C1500.42,527.204 1502.67,526.805 1504.37,526.45L1505.02,527.656L1502.13,542.387C1496.79,542.629 1490.17,542.978 1482.27,543.436C1474.36,543.894 1467.85,544.339 1462.72,544.772C1460.16,544.989 1456.69,545.334 1452.31,545.809C1447.93,546.284 1443.39,546.72 1438.69,547.117C1433.99,547.514 1429.72,547.98 1425.88,548.515L1428.76,534.099C1435.6,533.311 1440.72,531.933 1444.14,529.965C1447.56,527.996 1449.91,524.543 1451.19,519.606C1452.47,514.669 1453.11,507.581 1453.11,498.342L1453.11,450.785C1448.2,451.2 1442.64,451.617 1436.45,452.035C1430.26,452.453 1424.27,452.906 1418.51,453.394C1412.74,453.881 1408.04,454.278 1404.41,454.585C1402.27,454.765 1398.37,455.252 1392.71,456.045C1387.05,456.838 1380.54,457.809 1373.17,458.956C1365.8,460.104 1358.48,461.299 1351.22,462.543L1349.94,519.027C1349.94,527.425 1350.9,533.013 1352.82,535.79C1354.75,538.567 1358.48,539.721 1364.04,539.252C1366.39,539.054 1368.95,538.732 1371.73,538.288C1374.51,537.843 1376.75,537.443 1378.46,537.089L1379.1,538.295L1376.21,553.026C1376.21,552.816 1374.61,552.794 1371.41,552.96C1368.2,553.125 1364.46,553.336 1360.19,553.592C1355.92,553.848 1352.18,554.111 1348.98,554.382C1342.57,554.924 1335.58,555.725 1327.99,556.785C1320.41,557.846 1313.95,558.864 1308.61,559.84C1303.27,560.816 1300.49,561.628 1300.28,562.276ZM472,446L468,528L500,528C500,528 535.332,515.295 535,481C534.687,448.728 517.083,440.998 483,441C470.918,441.001 472,446 472,446ZM671.667,525.46C671.513,526.05 671.652,526.679 672.041,527.149C672.431,527.619 673.022,527.874 673.631,527.833C701.429,525.993 720.272,522.559 726.092,521.396C726.581,521.291 727.002,520.985 727.253,520.553C727.505,520.121 727.563,519.604 727.414,519.127C723.805,507.577 704.678,446.371 703.103,441.33C702.999,440.999 702.792,440.708 702.512,440.502C701.944,440.092 700.964,439.874 700,442C699.019,444.164 679.112,497.79 671.667,525.46ZM995,349C985.675,351.88 980.218,353.109 973.794,354.794C969.455,355.932 946.667,358 939,358C935.199,358 918,358 928,355C931.029,354.091 948.378,353.074 957,352C965.622,350.926 984.667,348.5 991,348C992.37,347.892 999.476,347.618 995,349ZM1091,341C1096.01,340.789 1101.03,340.578 1106.01,339.985C1115.04,338.91 1124,337.334 1133,336C1151.33,333.282 1169.84,331.675 1188,328C1191.41,327.311 1194.64,325.903 1197.82,324.504C1199.08,323.953 1200.78,323.486 1201.22,322.189C1201.48,321.4 1199.83,321.137 1199,321.03C1196.69,320.731 1194.33,320.803 1192,321C1182.65,321.794 1173.29,322.651 1164,324C1158.98,324.729 1154.05,325.994 1149.13,327.225C1148.49,327.385 1147.85,327.577 1147.22,327.788C1144.71,328.605 1142.12,329.171 1139.5,329.48C1134.47,330.121 1127,331 1127,331C1127,331 1122.94,331.874 1103,335C1084.24,339.471 1064.38,331.635 1046,337C1042.51,338.019 1039.13,339.468 1035.92,341.189C1035.52,341.407 1035.27,342.313 1035.67,342.546C1036.63,343.115 1037.88,343.031 1039,343C1056.34,342.515 1073.67,341.758 1091,341Z"/>
                    </g>
                </g>
            </g>
            <g id="Calque1">
            </g>
            <g transform="matrix(0.987536,0,0,0.997049,31.0168,4.42384)">
                <g id="Ranch-Industries" serif:id="Ranch Industries">
                    <g id="Industries">
                        <g transform="matrix(194.164,0,0,194.164,443,865)">
                            <rect x="0.045" y="-0.718" width="0.096" height="0.718" style="fill-rule:nonzero;"/>
                        </g>
                        <g transform="matrix(194.164,0,0,194.164,523.19,865)">
                            <path d="M0.244,-0.371L0.244,-0.718L0.34,-0.718L0.34,-0L0.244,-0L0.244,-0.143L0.141,-0.47L0.141,-0L0.045,-0L0.045,-0.718L0.141,-0.718L0.244,-0.371Z" style="fill-rule:nonzero;"/>
                        </g>
                        <g transform="matrix(194.164,0,0,194.164,642.018,865)">
                            <path d="M0.045,-0L0.045,-0.718L0.212,-0.718C0.302,-0.718 0.347,-0.672 0.347,-0.58L0.347,-0.104C0.347,-0.035 0.309,-0 0.232,-0L0.045,-0ZM0.141,-0.087L0.213,-0.087C0.238,-0.087 0.251,-0.098 0.251,-0.119L0.251,-0.579C0.251,-0.614 0.237,-0.631 0.208,-0.631L0.141,-0.631L0.141,-0.087Z" style="fill-rule:nonzero;"/>
                        </g>
                        <g transform="matrix(194.164,0,0,194.164,761.235,865)">
                            <path d="M0.357,-0.718L0.357,-0.136C0.357,-0.045 0.318,-0 0.241,-0L0.16,-0C0.083,-0 0.045,-0.046 0.045,-0.137L0.045,-0.718L0.141,-0.718L0.141,-0.134C0.141,-0.103 0.155,-0.087 0.183,-0.087L0.222,-0.087C0.248,-0.087 0.261,-0.103 0.261,-0.134L0.261,-0.718L0.357,-0.718Z" style="fill-rule:nonzero;"/>
                        </g>
                        <g transform="matrix(194.164,0,0,194.164,883.364,865)">
                            <path d="M0.229,-0.525L0.229,-0.588C0.229,-0.617 0.215,-0.631 0.187,-0.631L0.172,-0.631C0.145,-0.631 0.131,-0.617 0.131,-0.588L0.131,-0.469C0.131,-0.456 0.134,-0.447 0.139,-0.442C0.144,-0.437 0.153,-0.431 0.165,-0.424L0.256,-0.375C0.276,-0.364 0.29,-0.355 0.299,-0.348C0.307,-0.342 0.313,-0.335 0.318,-0.326C0.323,-0.317 0.325,-0.299 0.325,-0.274L0.325,-0.121C0.325,-0.04 0.286,-0 0.209,-0L0.15,-0C0.073,-0 0.035,-0.044 0.035,-0.132L0.035,-0.168L0.131,-0.168L0.131,-0.129C0.131,-0.101 0.145,-0.087 0.174,-0.087L0.191,-0.087C0.216,-0.087 0.229,-0.101 0.229,-0.129L0.229,-0.251C0.229,-0.264 0.226,-0.273 0.221,-0.278C0.216,-0.283 0.207,-0.289 0.195,-0.296L0.104,-0.347C0.084,-0.358 0.07,-0.367 0.061,-0.374C0.051,-0.381 0.045,-0.391 0.041,-0.403C0.037,-0.414 0.035,-0.429 0.035,-0.448L0.035,-0.595C0.035,-0.677 0.073,-0.718 0.15,-0.718L0.21,-0.718C0.287,-0.718 0.325,-0.677 0.325,-0.595L0.325,-0.525L0.229,-0.525Z" style="fill-rule:nonzero;"/>
                        </g>
                        <g transform="matrix(194.164,0,0,194.164,997.338,865)">
                            <path d="M0.198,-0.631L0.198,-0L0.102,-0L0.102,-0.631L0.01,-0.631L0.01,-0.718L0.29,-0.718L0.29,-0.631L0.198,-0.631Z" style="fill-rule:nonzero;"/>
                        </g>
                        <g transform="matrix(194.164,0,0,194.164,1099.66,865)">
                            <path d="M0.045,-0.718L0.233,-0.718C0.306,-0.718 0.343,-0.677 0.343,-0.595L0.343,-0.418C0.343,-0.355 0.324,-0.316 0.286,-0.299L0.353,-0L0.262,-0L0.199,-0.29L0.141,-0.29L0.141,-0L0.045,-0L0.045,-0.718ZM0.141,-0.372L0.204,-0.372C0.233,-0.372 0.247,-0.389 0.247,-0.424L0.247,-0.579C0.247,-0.614 0.233,-0.631 0.204,-0.631L0.141,-0.631L0.141,-0.372Z" style="fill-rule:nonzero;"/>
                        </g>
                        <g transform="matrix(194.164,0,0,194.164,1217.13,865)">
                            <rect x="0.045" y="-0.718" width="0.096" height="0.718" style="fill-rule:nonzero;"/>
                        </g>
                        <g transform="matrix(194.164,0,0,194.164,1297.32,865)">
                            <path d="M0.045,-0L0.045,-0.718L0.283,-0.718L0.283,-0.631L0.141,-0.631L0.141,-0.413L0.267,-0.413L0.267,-0.326L0.141,-0.326L0.141,-0.087L0.283,-0.087L0.283,-0L0.045,-0Z" style="fill-rule:nonzero;"/>
                        </g>
                        <g transform="matrix(194.164,0,0,194.164,1401.01,865)">
                            <path d="M0.229,-0.525L0.229,-0.588C0.229,-0.617 0.215,-0.631 0.187,-0.631L0.172,-0.631C0.145,-0.631 0.131,-0.617 0.131,-0.588L0.131,-0.469C0.131,-0.456 0.134,-0.447 0.139,-0.442C0.144,-0.437 0.153,-0.431 0.165,-0.424L0.256,-0.375C0.276,-0.364 0.29,-0.355 0.299,-0.348C0.307,-0.342 0.313,-0.335 0.318,-0.326C0.323,-0.317 0.325,-0.299 0.325,-0.274L0.325,-0.121C0.325,-0.04 0.286,-0 0.209,-0L0.15,-0C0.073,-0 0.035,-0.044 0.035,-0.132L0.035,-0.168L0.131,-0.168L0.131,-0.129C0.131,-0.101 0.145,-0.087 0.174,-0.087L0.191,-0.087C0.216,-0.087 0.229,-0.101 0.229,-0.129L0.229,-0.251C0.229,-0.264 0.226,-0.273 0.221,-0.278C0.216,-0.283 0.207,-0.289 0.195,-0.296L0.104,-0.347C0.084,-0.358 0.07,-0.367 0.061,-0.374C0.051,-0.381 0.045,-0.391 0.041,-0.403C0.037,-0.414 0.035,-0.429 0.035,-0.448L0.035,-0.595C0.035,-0.677 0.073,-0.718 0.15,-0.718L0.21,-0.718C0.287,-0.718 0.325,-0.677 0.325,-0.595L0.325,-0.525L0.229,-0.525Z" style="fill-rule:nonzero;"/>
                        </g>
                    </g>
                </g>
            </g>
        </g>
    </g>
</svg>
