<?xml version="1.0" encoding="UTF-8" standalone="no"?>
<!DOCTYPE svg PUBLIC "-//W3C//DTD SVG 1.1//EN" "http://www.w3.org/Graphics/SVG/1.1/DTD/svg11.dtd">
<svg width="100%" height="100%" viewBox="0 0 1254 1254" version="1.1" xmlns="http://www.w3.org/2000/svg" xmlns:xlink="http://www.w3.org/1999/xlink" xml:space="preserve" xmlns:serif="http://www.serif.com/" style="fill-rule:evenodd;clip-rule:evenodd;stroke-linejoin:round;stroke-miterlimit:2;">
    <g transform="matrix(1,0,0,1,-1721,0)">
        <g id="Plan-de-travail2" serif:id="Plan de travail2" transform="matrix(1,0,0,1,0,36)">
            <rect x="1721" y="-36" width="1254" height="1254" style="fill:none;"/>
            <g transform="matrix(1,0,0,1,0,-36)">
                <path d="M2214.65,731.91L2494,894.028L2494,977L2541,1004L2541,1109L2057,830L2057,641L2214.65,731.91ZM2190.6,707.767L2322.58,784.364C2376.28,815.282 2425.65,843.708 2441.62,852.902C2445.03,854.868 2449.14,855.237 2452.85,853.912C2459.64,851.488 2470.94,847.45 2479.1,844.534C2484.76,842.515 2488.31,836.907 2487.72,830.934C2486.39,817.439 2485.25,792.031 2491,765C2491.99,760.362 2491.68,757.064 2491.35,755.351C2491.27,755.096 2491.35,754.822 2491.55,754.645C2491.75,754.468 2492.03,754.418 2492.27,754.516C2504.09,759.211 2594,795 2594,795L2600,779C2600,779 2516.13,745.452 2504.37,740.746C2504.06,740.624 2503.84,740.358 2503.77,740.038C2503.7,739.717 2503.8,739.384 2504.03,739.149C2506.35,736.775 2511.82,731.188 2511.99,731.005C2512.01,731.001 2512.03,730.992 2512.05,730.978C2512.42,730.745 2514.9,728.112 2516,699C2516.94,674.017 2535.39,679.039 2535.72,678.604C2535.72,678.604 2569,682.755 2581.94,684.369C2585.08,684.761 2588.21,683.492 2590.18,681.018C2590.18,681.018 2590.19,681.018 2590.19,681.018C2593.16,677.302 2593.89,672.269 2592.1,667.861C2581.43,641.617 2545,553 2545,553C2545,553 2544.06,550.962 2548.19,547C2549.57,545.674 2549.84,543.545 2549.47,541.664C2549.11,539.784 2547.94,538.155 2546.28,537.201C2494.17,507.462 2201.23,337.301 2201.18,337.272C2201.04,337.193 2200.89,337.116 2200.75,337.042C2200.58,336.97 2200.37,336.865 2200.14,336.744C2196.45,334.847 2192.19,334.368 2188.18,335.399C2119.33,353.246 2105.81,411.715 2105.26,430.907C2105.24,432.236 2105.95,433.471 2107.1,434.132C2108.25,434.794 2109.67,434.779 2110.81,434.092C2116.25,430.812 2125.52,425.216 2134.48,419.804C2137.35,418.072 2141,418.357 2143.57,420.513C2146.14,422.669 2147.05,426.219 2145.84,429.345C2140.26,444.008 2135.77,464.997 2139,491.411C2143.29,526.457 2116,547 2116,547C2116,547 2031.81,624.46 2139,676.823C2147.19,680.823 2130.62,640.073 2143,629C2147.25,625.195 2149.41,630.617 2150.41,639.373C2153.64,666.947 2168.33,691.71 2190.6,707.767ZM2029,223L2723,629C2723,629 2784.73,653.356 2755,588C2725.27,522.644 2595,494 2595,494L2658,330L2388,129L2275,232C2275,232 2205.72,145.562 2074,144C1897.36,151.469 2029,223 2029,223Z"/>
            </g>
        </g>
    </g>
</svg>
