<?xml version="1.0" encoding="UTF-8" standalone="no"?>
<!DOCTYPE svg PUBLIC "-//W3C//DTD SVG 1.1//EN" "http://www.w3.org/Graphics/SVG/1.1/DTD/svg11.dtd">
<svg width="100%" height="100%" viewBox="0 0 2411 1103" version="1.1" xmlns="http://www.w3.org/2000/svg" xmlns:xlink="http://www.w3.org/1999/xlink" xml:space="preserve" xmlns:serif="http://www.serif.com/" style="fill-rule:evenodd;clip-rule:evenodd;stroke-linejoin:round;stroke-miterlimit:2;">
    <g transform="matrix(1,0,0,1,-1721,-1336)">
        <g id="Plan-de-travail3" serif:id="Plan de travail3" transform="matrix(1.22572,0,0,1,-392.149,40)">
            <rect x="1724" y="1296" width="1967" height="1103" style="fill:none;"/>
            <g transform="matrix(1,0,0,1,34.3442,0)">
                <g transform="matrix(0.815844,0,0,1,210.631,1228.5)">
                    <path d="M2214.65,731.91L2494,894.028L2494,977L2541,1004L2541,1109L2057,830L2057,641L2214.65,731.91ZM2190.6,707.767L2322.58,784.364C2376.28,815.282 2425.65,843.708 2441.62,852.902C2445.03,854.868 2449.14,855.237 2452.85,853.912C2459.64,851.488 2470.94,847.45 2479.1,844.534C2484.76,842.515 2488.31,836.907 2487.72,830.934C2486.39,817.439 2485.25,792.031 2491,765C2491.99,760.362 2491.68,757.064 2491.35,755.351C2491.27,755.096 2491.35,754.822 2491.55,754.645C2491.75,754.468 2492.03,754.418 2492.27,754.516C2504.09,759.211 2594,795 2594,795L2600,779C2600,779 2516.13,745.452 2504.37,740.746C2504.06,740.624 2503.84,740.358 2503.77,740.038C2503.7,739.717 2503.8,739.384 2504.03,739.149C2506.35,736.775 2511.82,731.188 2511.99,731.005C2512.01,731.001 2512.03,730.992 2512.05,730.978C2512.42,730.745 2514.9,728.112 2516,699C2516.94,674.017 2535.39,679.039 2535.72,678.604C2535.72,678.604 2569,682.755 2581.94,684.369C2585.08,684.761 2588.21,683.492 2590.18,681.018C2590.18,681.018 2590.19,681.018 2590.19,681.018C2593.16,677.302 2593.89,672.269 2592.1,667.861C2581.43,641.617 2545,553 2545,553C2545,553 2544.06,550.962 2548.19,547C2549.57,545.674 2549.84,543.545 2549.47,541.664C2549.11,539.784 2547.94,538.155 2546.28,537.201C2494.17,507.462 2201.23,337.301 2201.18,337.272C2201.04,337.193 2200.89,337.116 2200.75,337.042C2200.58,336.97 2200.37,336.865 2200.14,336.744C2196.45,334.847 2192.19,334.368 2188.18,335.399C2119.33,353.246 2105.81,411.715 2105.26,430.907C2105.24,432.236 2105.95,433.471 2107.1,434.132C2108.25,434.794 2109.67,434.779 2110.81,434.092C2116.25,430.812 2125.52,425.216 2134.48,419.804C2137.35,418.072 2141,418.357 2143.57,420.513C2146.14,422.669 2147.05,426.219 2145.84,429.345C2140.26,444.008 2135.77,464.997 2139,491.411C2143.29,526.457 2116,547 2116,547C2116,547 2031.81,624.46 2139,676.823C2147.19,680.823 2130.62,640.073 2143,629C2147.25,625.195 2149.41,630.617 2150.41,639.373C2153.64,666.947 2168.33,691.71 2190.6,707.767ZM2029,223L2723,629C2723,629 2784.73,653.356 2755,588C2725.27,522.644 2595,494 2595,494L2658,330L2388,129L2275,232C2275,232 2205.72,145.562 2074,144C1897.36,151.469 2029,223 2029,223Z"/>
                </g>
                <g transform="matrix(1,0,0,1,-23.6595,1.89685)">
                    <g transform="matrix(0.738042,0,0,0.904636,531.301,155.086)">
                        <g transform="matrix(389.396,0,0,380.054,2726,1843)">
                            <path d="M0.512,0.016C0.495,0.016 0.477,0.007 0.459,-0.01C0.44,-0.027 0.422,-0.05 0.406,-0.079L0.299,-0.273L0.216,-0.273L0.213,-0.124C0.213,-0.1 0.215,-0.082 0.218,-0.07C0.221,-0.059 0.227,-0.051 0.237,-0.048C0.248,-0.044 0.264,-0.042 0.285,-0.042L0.287,-0.038L0.278,0.004C0.278,0.004 0.275,0.004 0.268,0.003C0.261,0.003 0.253,0.003 0.243,0.002C0.232,0.002 0.221,0.002 0.209,0.001C0.196,0.001 0.184,0.001 0.172,0.001C0.155,0 0.138,0 0.121,0.001C0.103,0.002 0.088,0.002 0.076,0.003C0.063,0.004 0.057,0.004 0.057,0.004L0.066,-0.041C0.097,-0.044 0.118,-0.051 0.128,-0.062C0.137,-0.072 0.142,-0.091 0.142,-0.12L0.143,-0.54C0.143,-0.561 0.141,-0.576 0.136,-0.583C0.131,-0.59 0.121,-0.594 0.106,-0.594C0.1,-0.594 0.093,-0.594 0.085,-0.593C0.076,-0.592 0.072,-0.592 0.072,-0.592L0.07,-0.596L0.077,-0.64C0.077,-0.64 0.081,-0.64 0.089,-0.64C0.096,-0.639 0.106,-0.639 0.118,-0.639C0.13,-0.638 0.142,-0.638 0.155,-0.637C0.168,-0.637 0.179,-0.637 0.188,-0.637C0.197,-0.637 0.208,-0.637 0.222,-0.637C0.235,-0.638 0.249,-0.638 0.263,-0.639C0.276,-0.64 0.288,-0.64 0.297,-0.641C0.306,-0.641 0.311,-0.641 0.311,-0.641C0.373,-0.641 0.422,-0.627 0.458,-0.599C0.494,-0.571 0.512,-0.533 0.512,-0.484C0.512,-0.444 0.499,-0.407 0.473,-0.374C0.448,-0.341 0.412,-0.313 0.365,-0.292L0.475,-0.118C0.494,-0.087 0.513,-0.065 0.532,-0.052C0.55,-0.039 0.572,-0.033 0.599,-0.033L0.603,-0.029L0.597,0.005L0.512,0.016ZM0.321,-0.319C0.321,-0.319 0.327,-0.321 0.338,-0.326C0.348,-0.33 0.361,-0.337 0.375,-0.348C0.389,-0.359 0.402,-0.374 0.412,-0.393C0.424,-0.412 0.429,-0.437 0.429,-0.466C0.429,-0.51 0.414,-0.543 0.384,-0.565C0.353,-0.587 0.307,-0.598 0.246,-0.598C0.239,-0.598 0.235,-0.597 0.233,-0.594C0.23,-0.591 0.229,-0.584 0.228,-0.575C0.225,-0.522 0.223,-0.477 0.222,-0.439C0.22,-0.401 0.219,-0.364 0.218,-0.329L0.321,-0.319Z" style="fill-rule:nonzero;"/>
                        </g>
                        <g transform="matrix(389.396,0,0,380.054,2987.28,1843)">
                            <path d="M0.332,0.01L0.329,0.003L0.333,-0.036C0.356,-0.038 0.374,-0.04 0.387,-0.043C0.4,-0.046 0.409,-0.05 0.414,-0.055C0.419,-0.059 0.422,-0.066 0.422,-0.074C0.422,-0.081 0.421,-0.088 0.42,-0.096C0.419,-0.104 0.416,-0.113 0.413,-0.122L0.38,-0.231C0.368,-0.232 0.351,-0.232 0.33,-0.232L0.276,-0.232C0.257,-0.232 0.236,-0.231 0.216,-0.229C0.195,-0.227 0.178,-0.225 0.167,-0.224L0.13,-0.12C0.124,-0.102 0.121,-0.089 0.121,-0.081C0.121,-0.066 0.126,-0.056 0.136,-0.05C0.145,-0.043 0.16,-0.04 0.181,-0.04L0.238,-0.04L0.24,-0.036L0.234,0.007C0.234,0.007 0.227,0.006 0.213,0.005C0.199,0.004 0.181,0.002 0.16,0.001C0.139,0 0.117,-0 0.095,-0C0.079,-0 0.063,0 0.046,0C0.029,0.001 0.014,0.001 0.003,0.002C-0.009,0.003 -0.015,0.003 -0.015,0.003L-0.007,-0.044C0.012,-0.046 0.027,-0.052 0.038,-0.063C0.049,-0.074 0.06,-0.093 0.071,-0.121L0.266,-0.632L0.329,-0.649L0.337,-0.649L0.362,-0.561C0.369,-0.533 0.378,-0.501 0.389,-0.466C0.399,-0.43 0.41,-0.392 0.422,-0.352C0.433,-0.312 0.445,-0.272 0.458,-0.231C0.471,-0.19 0.483,-0.15 0.496,-0.113C0.504,-0.088 0.515,-0.071 0.529,-0.061C0.542,-0.051 0.563,-0.045 0.592,-0.042L0.594,-0.038L0.587,0.003C0.587,0.003 0.581,0.003 0.568,0.002C0.555,0.001 0.54,0.001 0.523,0C0.506,0 0.492,-0 0.481,-0C0.456,-0 0.432,0.001 0.408,0.002C0.386,0.004 0.367,0.006 0.353,0.007C0.339,0.009 0.332,0.01 0.332,0.01ZM0.185,-0.273L0.273,-0.273C0.286,-0.273 0.302,-0.274 0.321,-0.275C0.34,-0.276 0.355,-0.277 0.366,-0.278L0.287,-0.54L0.28,-0.54L0.185,-0.273Z" style="fill-rule:nonzero;"/>
                        </g>
                        <g transform="matrix(389.396,0,0,380.054,3238.06,1843)">
                            <path d="M0.584,0.095C0.535,0.019 0.475,-0.107 0.43,-0.174C0.385,-0.241 0.346,-0.299 0.311,-0.349C0.276,-0.4 0.249,-0.439 0.229,-0.468C0.208,-0.497 0.198,-0.511 0.198,-0.511L0.193,-0.511L0.188,-0.084C0.188,-0.069 0.19,-0.059 0.195,-0.053C0.2,-0.047 0.208,-0.044 0.219,-0.044C0.222,-0.044 0.228,-0.044 0.236,-0.045C0.245,-0.045 0.253,-0.045 0.26,-0.045L0.27,-0.045L0.272,-0.041L0.263,0.004C0.263,0.004 0.26,0.004 0.253,0.003C0.246,0.003 0.237,0.003 0.226,0.002C0.215,0.001 0.204,0.001 0.192,0C0.179,0 0.168,-0 0.157,-0C0.144,-0 0.13,0.001 0.116,0.002C0.101,0.003 0.089,0.005 0.079,0.006C0.069,0.007 0.064,0.008 0.064,0.008L0.069,-0.038C0.09,-0.041 0.105,-0.047 0.115,-0.056C0.125,-0.065 0.13,-0.08 0.131,-0.101L0.144,-0.538C0.144,-0.559 0.138,-0.573 0.126,-0.582C0.113,-0.591 0.09,-0.597 0.057,-0.6L0.054,-0.605L0.062,-0.642C0.062,-0.642 0.067,-0.642 0.078,-0.641C0.088,-0.64 0.1,-0.64 0.114,-0.639C0.127,-0.637 0.139,-0.637 0.148,-0.637C0.159,-0.637 0.17,-0.637 0.18,-0.638C0.19,-0.639 0.198,-0.639 0.205,-0.64C0.212,-0.641 0.215,-0.641 0.215,-0.641C0.248,-0.59 0.281,-0.54 0.314,-0.491C0.346,-0.442 0.376,-0.397 0.405,-0.355C0.434,-0.313 0.459,-0.276 0.481,-0.245C0.503,-0.214 0.52,-0.189 0.533,-0.172C0.545,-0.154 0.551,-0.145 0.551,-0.145L0.556,-0.145L0.556,-0.55C0.556,-0.565 0.553,-0.576 0.548,-0.583C0.543,-0.59 0.534,-0.593 0.523,-0.593C0.514,-0.593 0.506,-0.593 0.498,-0.593C0.489,-0.592 0.485,-0.592 0.485,-0.592L0.483,-0.596L0.492,-0.641C0.492,-0.641 0.495,-0.641 0.502,-0.641C0.509,-0.64 0.517,-0.64 0.527,-0.639C0.537,-0.638 0.547,-0.638 0.558,-0.637C0.569,-0.637 0.578,-0.637 0.587,-0.637C0.601,-0.637 0.616,-0.638 0.631,-0.639C0.646,-0.64 0.659,-0.642 0.67,-0.643C0.681,-0.644 0.686,-0.645 0.686,-0.645L0.681,-0.599C0.658,-0.596 0.642,-0.59 0.63,-0.58C0.62,-0.57 0.614,-0.555 0.613,-0.536L0.613,0.081L0.584,0.095Z" style="fill-rule:nonzero;"/>
                        </g>
                        <g transform="matrix(389.396,0,0,380.054,3541.39,1843)">
                            <path d="M0.339,0.012C0.278,0.012 0.226,-0.001 0.181,-0.026C0.136,-0.051 0.102,-0.087 0.077,-0.134C0.052,-0.18 0.04,-0.234 0.04,-0.297C0.04,-0.348 0.049,-0.395 0.066,-0.438C0.083,-0.481 0.108,-0.518 0.139,-0.55C0.17,-0.581 0.207,-0.606 0.25,-0.623C0.292,-0.64 0.338,-0.649 0.389,-0.649C0.41,-0.649 0.43,-0.648 0.451,-0.646C0.472,-0.643 0.49,-0.64 0.507,-0.637C0.524,-0.634 0.537,-0.631 0.548,-0.628C0.558,-0.626 0.563,-0.625 0.563,-0.625L0.567,-0.619C0.567,-0.619 0.565,-0.612 0.562,-0.597C0.559,-0.582 0.555,-0.561 0.551,-0.536C0.547,-0.511 0.544,-0.483 0.542,-0.452L0.494,-0.448C0.494,-0.448 0.495,-0.454 0.496,-0.465C0.497,-0.475 0.497,-0.486 0.497,-0.497C0.497,-0.528 0.485,-0.552 0.461,-0.567C0.436,-0.582 0.399,-0.59 0.35,-0.59C0.305,-0.59 0.267,-0.579 0.234,-0.558C0.201,-0.537 0.175,-0.507 0.157,-0.468C0.139,-0.429 0.13,-0.383 0.13,-0.33C0.13,-0.271 0.14,-0.22 0.159,-0.177C0.178,-0.133 0.204,-0.099 0.238,-0.075C0.273,-0.05 0.313,-0.038 0.359,-0.038C0.404,-0.038 0.441,-0.051 0.469,-0.077C0.496,-0.102 0.516,-0.142 0.529,-0.196L0.577,-0.2C0.577,-0.2 0.576,-0.195 0.574,-0.185C0.572,-0.175 0.57,-0.162 0.567,-0.146C0.564,-0.129 0.561,-0.112 0.558,-0.093C0.555,-0.074 0.552,-0.055 0.55,-0.037L0.544,-0.028C0.544,-0.028 0.535,-0.025 0.518,-0.018C0.5,-0.011 0.476,-0.005 0.445,0.002C0.414,0.009 0.379,0.012 0.339,0.012Z" style="fill-rule:nonzero;"/>
                        </g>
                        <g transform="matrix(389.396,0,0,380.054,3808.52,1843)">
                            <path d="M0.058,0.012L0.064,-0.034C0.095,-0.04 0.116,-0.049 0.127,-0.061C0.137,-0.072 0.142,-0.092 0.142,-0.12L0.143,-0.54C0.143,-0.561 0.141,-0.576 0.136,-0.583C0.131,-0.59 0.121,-0.594 0.106,-0.594C0.102,-0.594 0.097,-0.594 0.09,-0.594C0.083,-0.593 0.077,-0.593 0.072,-0.592L0.07,-0.596L0.077,-0.64C0.092,-0.639 0.111,-0.639 0.134,-0.638C0.156,-0.637 0.174,-0.637 0.188,-0.637C0.201,-0.637 0.217,-0.638 0.237,-0.64C0.258,-0.641 0.277,-0.643 0.295,-0.646L0.291,-0.601C0.272,-0.598 0.259,-0.595 0.25,-0.59C0.241,-0.585 0.234,-0.576 0.232,-0.565C0.229,-0.553 0.226,-0.535 0.225,-0.511L0.219,-0.349L0.387,-0.348C0.409,-0.348 0.431,-0.349 0.452,-0.35C0.473,-0.351 0.501,-0.354 0.535,-0.358L0.536,-0.54C0.536,-0.561 0.534,-0.576 0.529,-0.583C0.524,-0.59 0.514,-0.594 0.499,-0.594C0.494,-0.594 0.489,-0.594 0.483,-0.594C0.476,-0.593 0.47,-0.593 0.465,-0.592L0.463,-0.596L0.47,-0.64C0.47,-0.64 0.476,-0.64 0.488,-0.639C0.5,-0.638 0.514,-0.638 0.529,-0.637C0.544,-0.637 0.557,-0.637 0.568,-0.637C0.583,-0.637 0.601,-0.638 0.624,-0.64C0.647,-0.641 0.668,-0.643 0.688,-0.646L0.684,-0.601C0.659,-0.598 0.643,-0.592 0.634,-0.585C0.626,-0.577 0.621,-0.563 0.62,-0.544C0.618,-0.505 0.616,-0.465 0.615,-0.423C0.613,-0.38 0.611,-0.339 0.61,-0.299C0.609,-0.258 0.608,-0.221 0.607,-0.188C0.606,-0.155 0.606,-0.127 0.606,-0.106C0.606,-0.081 0.609,-0.065 0.615,-0.057C0.621,-0.048 0.633,-0.044 0.65,-0.044C0.657,-0.044 0.665,-0.044 0.674,-0.045C0.683,-0.046 0.69,-0.046 0.695,-0.047L0.697,-0.043L0.688,0.003C0.671,0.002 0.651,0.002 0.626,0.001C0.601,0 0.581,-0 0.565,-0C0.557,-0 0.546,0 0.533,0C0.519,0.001 0.505,0.001 0.49,0.001C0.475,0.001 0.462,0.001 0.45,0.002L0.459,-0.043C0.48,-0.044 0.496,-0.047 0.507,-0.052C0.518,-0.057 0.525,-0.068 0.529,-0.083C0.533,-0.098 0.535,-0.121 0.535,-0.15L0.535,-0.301C0.52,-0.301 0.502,-0.301 0.483,-0.302C0.464,-0.302 0.445,-0.302 0.427,-0.302L0.383,-0.302C0.376,-0.302 0.364,-0.302 0.346,-0.301C0.329,-0.3 0.309,-0.298 0.285,-0.297C0.263,-0.295 0.24,-0.293 0.217,-0.291L0.213,-0.112C0.213,-0.085 0.216,-0.067 0.222,-0.058C0.228,-0.049 0.24,-0.044 0.257,-0.044C0.264,-0.044 0.272,-0.044 0.281,-0.045C0.29,-0.046 0.297,-0.046 0.302,-0.047L0.304,-0.043L0.295,0.003C0.295,0.002 0.29,0.002 0.28,0.001C0.27,0.001 0.258,0.001 0.245,0C0.232,0 0.22,-0 0.21,-0C0.19,-0 0.168,0.001 0.145,0.002C0.121,0.003 0.101,0.005 0.084,0.006C0.067,0.008 0.059,0.01 0.058,0.012Z" style="fill-rule:nonzero;"/>
                        </g>
                    </g>
                    <g id="Industries" transform="matrix(0.825641,0,0,0.99478,2260.12,1231.53)">
                        <g transform="matrix(194.164,0,0,194.164,443,865)">
                            <rect x="0.045" y="-0.718" width="0.096" height="0.718" style="fill-rule:nonzero;"/>
                        </g>
                        <g transform="matrix(194.164,0,0,194.164,523.19,865)">
                            <path d="M0.244,-0.371L0.244,-0.718L0.34,-0.718L0.34,-0L0.244,-0L0.244,-0.143L0.141,-0.47L0.141,-0L0.045,-0L0.045,-0.718L0.141,-0.718L0.244,-0.371Z" style="fill-rule:nonzero;"/>
                        </g>
                        <g transform="matrix(194.164,0,0,194.164,642.018,865)">
                            <path d="M0.045,-0L0.045,-0.718L0.212,-0.718C0.302,-0.718 0.347,-0.672 0.347,-0.58L0.347,-0.104C0.347,-0.035 0.309,-0 0.232,-0L0.045,-0ZM0.141,-0.087L0.213,-0.087C0.238,-0.087 0.251,-0.098 0.251,-0.119L0.251,-0.579C0.251,-0.614 0.237,-0.631 0.208,-0.631L0.141,-0.631L0.141,-0.087Z" style="fill-rule:nonzero;"/>
                        </g>
                        <g transform="matrix(194.164,0,0,194.164,761.235,865)">
                            <path d="M0.357,-0.718L0.357,-0.136C0.357,-0.045 0.318,-0 0.241,-0L0.16,-0C0.083,-0 0.045,-0.046 0.045,-0.137L0.045,-0.718L0.141,-0.718L0.141,-0.134C0.141,-0.103 0.155,-0.087 0.183,-0.087L0.222,-0.087C0.248,-0.087 0.261,-0.103 0.261,-0.134L0.261,-0.718L0.357,-0.718Z" style="fill-rule:nonzero;"/>
                        </g>
                        <g transform="matrix(194.164,0,0,194.164,883.364,865)">
                            <path d="M0.229,-0.525L0.229,-0.588C0.229,-0.617 0.215,-0.631 0.187,-0.631L0.172,-0.631C0.145,-0.631 0.131,-0.617 0.131,-0.588L0.131,-0.469C0.131,-0.456 0.134,-0.447 0.139,-0.442C0.144,-0.437 0.153,-0.431 0.165,-0.424L0.256,-0.375C0.276,-0.364 0.29,-0.355 0.299,-0.348C0.307,-0.342 0.313,-0.335 0.318,-0.326C0.323,-0.317 0.325,-0.299 0.325,-0.274L0.325,-0.121C0.325,-0.04 0.286,-0 0.209,-0L0.15,-0C0.073,-0 0.035,-0.044 0.035,-0.132L0.035,-0.168L0.131,-0.168L0.131,-0.129C0.131,-0.101 0.145,-0.087 0.174,-0.087L0.191,-0.087C0.216,-0.087 0.229,-0.101 0.229,-0.129L0.229,-0.251C0.229,-0.264 0.226,-0.273 0.221,-0.278C0.216,-0.283 0.207,-0.289 0.195,-0.296L0.104,-0.347C0.084,-0.358 0.07,-0.367 0.061,-0.374C0.051,-0.381 0.045,-0.391 0.041,-0.403C0.037,-0.414 0.035,-0.429 0.035,-0.448L0.035,-0.595C0.035,-0.677 0.073,-0.718 0.15,-0.718L0.21,-0.718C0.287,-0.718 0.325,-0.677 0.325,-0.595L0.325,-0.525L0.229,-0.525Z" style="fill-rule:nonzero;"/>
                        </g>
                        <g transform="matrix(194.164,0,0,194.164,997.338,865)">
                            <path d="M0.198,-0.631L0.198,-0L0.102,-0L0.102,-0.631L0.01,-0.631L0.01,-0.718L0.29,-0.718L0.29,-0.631L0.198,-0.631Z" style="fill-rule:nonzero;"/>
                        </g>
                        <g transform="matrix(194.164,0,0,194.164,1099.66,865)">
                            <path d="M0.045,-0.718L0.233,-0.718C0.306,-0.718 0.343,-0.677 0.343,-0.595L0.343,-0.418C0.343,-0.355 0.324,-0.316 0.286,-0.299L0.353,-0L0.262,-0L0.199,-0.29L0.141,-0.29L0.141,-0L0.045,-0L0.045,-0.718ZM0.141,-0.372L0.204,-0.372C0.233,-0.372 0.247,-0.389 0.247,-0.424L0.247,-0.579C0.247,-0.614 0.233,-0.631 0.204,-0.631L0.141,-0.631L0.141,-0.372Z" style="fill-rule:nonzero;"/>
                        </g>
                        <g transform="matrix(194.164,0,0,194.164,1217.13,865)">
                            <rect x="0.045" y="-0.718" width="0.096" height="0.718" style="fill-rule:nonzero;"/>
                        </g>
                        <g transform="matrix(194.164,0,0,194.164,1297.32,865)">
                            <path d="M0.045,-0L0.045,-0.718L0.283,-0.718L0.283,-0.631L0.141,-0.631L0.141,-0.413L0.267,-0.413L0.267,-0.326L0.141,-0.326L0.141,-0.087L0.283,-0.087L0.283,-0L0.045,-0Z" style="fill-rule:nonzero;"/>
                        </g>
                        <g transform="matrix(194.164,0,0,194.164,1401.01,865)">
                            <path d="M0.229,-0.525L0.229,-0.588C0.229,-0.617 0.215,-0.631 0.187,-0.631L0.172,-0.631C0.145,-0.631 0.131,-0.617 0.131,-0.588L0.131,-0.469C0.131,-0.456 0.134,-0.447 0.139,-0.442C0.144,-0.437 0.153,-0.431 0.165,-0.424L0.256,-0.375C0.276,-0.364 0.29,-0.355 0.299,-0.348C0.307,-0.342 0.313,-0.335 0.318,-0.326C0.323,-0.317 0.325,-0.299 0.325,-0.274L0.325,-0.121C0.325,-0.04 0.286,-0 0.209,-0L0.15,-0C0.073,-0 0.035,-0.044 0.035,-0.132L0.035,-0.168L0.131,-0.168L0.131,-0.129C0.131,-0.101 0.145,-0.087 0.174,-0.087L0.191,-0.087C0.216,-0.087 0.229,-0.101 0.229,-0.129L0.229,-0.251C0.229,-0.264 0.226,-0.273 0.221,-0.278C0.216,-0.283 0.207,-0.289 0.195,-0.296L0.104,-0.347C0.084,-0.358 0.07,-0.367 0.061,-0.374C0.051,-0.381 0.045,-0.391 0.041,-0.403C0.037,-0.414 0.035,-0.429 0.035,-0.448L0.035,-0.595C0.035,-0.677 0.073,-0.718 0.15,-0.718L0.21,-0.718C0.287,-0.718 0.325,-0.677 0.325,-0.595L0.325,-0.525L0.229,-0.525Z" style="fill-rule:nonzero;"/>
                        </g>
                    </g>
                </g>
            </g>
        </g>
    </g>
</svg>
