<?xml version="1.0" encoding="UTF-8" standalone="no"?>
<!DOCTYPE svg PUBLIC "-//W3C//DTD SVG 1.1//EN" "http://www.w3.org/Graphics/SVG/1.1/DTD/svg11.dtd">
<svg width="100%" height="100%" viewBox="0 0 1254 1254" version="1.1" xmlns="http://www.w3.org/2000/svg" xmlns:xlink="http://www.w3.org/1999/xlink" xml:space="preserve" xmlns:serif="http://www.serif.com/" style="fill-rule:evenodd;clip-rule:evenodd;stroke-linejoin:round;stroke-miterlimit:2;">
    <g transform="matrix(1,0,0,1,-1721,0)">
        <g id="Plan-de-travail2" serif:id="Plan de travail2" transform="matrix(1,0,0,1,0,36)">
            <rect x="1721" y="-36" width="1254" height="1254" style="fill:none;"/>
            <g transform="matrix(1,0,0,1,93.14,-1304)">
                <path d="M2122.77,2000.41L2402.12,2162.53L2402.12,2245.5L2449.12,2272.5L2449.12,2377.5L1965.12,2098.5L1965.12,1909.5L2122.77,2000.41ZM2098.72,1976.27L2230.71,2052.86C2284.4,2083.78 2333.77,2112.21 2349.74,2121.4C2353.16,2123.37 2357.26,2123.74 2360.97,2122.41C2367.76,2119.99 2379.06,2115.95 2387.23,2113.03C2392.88,2111.01 2396.43,2105.41 2395.84,2099.43C2394.52,2085.94 2393.37,2060.53 2399.12,2033.5C2400.11,2028.86 2399.8,2025.56 2399.47,2023.85C2399.4,2023.6 2399.48,2023.32 2399.67,2023.14C2399.87,2022.97 2400.15,2022.92 2400.4,2023.02C2412.22,2027.71 2502.12,2063.5 2502.12,2063.5L2508.12,2047.5C2508.12,2047.5 2424.25,2013.95 2412.49,2009.25C2412.18,2009.12 2411.96,2008.86 2411.89,2008.54C2411.83,2008.22 2411.92,2007.88 2412.15,2007.65C2414.47,2005.28 2419.94,1999.69 2420.12,1999.51C2420.14,1999.5 2420.16,1999.49 2420.17,1999.48C2420.55,1999.25 2423.02,1996.61 2424.12,1967.5C2425.07,1942.52 2443.51,1947.54 2443.84,1947.1C2443.84,1947.1 2477.12,1951.26 2490.06,1952.87C2493.21,1953.26 2496.33,1951.99 2498.31,1949.52C2498.31,1949.52 2498.31,1949.52 2498.31,1949.52C2501.28,1945.8 2502.01,1940.77 2500.22,1936.36C2489.55,1910.12 2453.12,1821.5 2453.12,1821.5C2453.12,1821.5 2452.18,1819.46 2456.31,1815.5C2457.7,1814.17 2457.96,1812.05 2457.6,1810.16C2457.23,1808.28 2456.07,1806.65 2454.41,1805.7C2402.29,1775.96 2109.35,1605.8 2109.3,1605.77C2109.16,1605.69 2109.02,1605.62 2108.88,1605.54C2108.7,1605.47 2108.5,1605.37 2108.26,1605.24C2104.57,1603.35 2100.32,1602.87 2096.3,1603.9C2027.45,1621.75 2013.93,1680.22 2013.39,1699.41C2013.37,1700.74 2014.07,1701.97 2015.22,1702.63C2016.37,1703.29 2017.79,1703.28 2018.93,1702.59C2024.37,1699.31 2033.64,1693.72 2042.6,1688.3C2045.47,1686.57 2049.13,1686.86 2051.7,1689.01C2054.26,1691.17 2055.17,1694.72 2053.96,1697.85C2048.39,1712.51 2043.89,1733.5 2047.12,1759.91C2051.41,1794.96 2024.12,1815.5 2024.12,1815.5C2024.12,1815.5 1939.93,1892.96 2047.12,1945.32C2055.31,1949.32 2038.75,1908.57 2051.12,1897.5C2055.38,1893.69 2057.53,1899.12 2058.53,1907.87C2061.76,1935.45 2076.45,1960.21 2098.72,1976.27ZM1937.12,1491.5L2631.12,1897.5C2631.12,1897.5 2692.85,1921.86 2663.12,1856.5C2633.39,1791.14 2503.12,1762.5 2503.12,1762.5L2566.12,1598.5L2296.12,1397.5L2183.12,1500.5C2183.12,1500.5 2113.84,1414.06 1982.12,1412.5C1805.48,1419.97 1937.12,1491.5 1937.12,1491.5ZM2221,1795C2214.55,1795.04 2215.05,1792.35 2225,1791C2238.03,1789.24 2280.13,1783.84 2296,1783C2305.14,1782.52 2319,1789.33 2324,1788C2328.3,1786.85 2321.77,1777.49 2326,1775C2337.89,1768 2359.62,1777.27 2362,1779L2415,1809.03C2424.44,1815.1 2426.4,1817.3 2418.1,1821.05C2414.79,1822.55 2412.53,1827.15 2409,1828C2400,1830.17 2383.17,1829.67 2371,1826C2358.87,1822.34 2350.83,1810.17 2340,1806C2329.38,1801.92 2316.5,1805.67 2307,1803C2298.52,1800.62 2291.77,1791.83 2283,1791C2268.83,1789.67 2242.78,1796.36 2221,1795Z"/>
            </g>
        </g>
    </g>
</svg>
