<?xml version="1.0" encoding="UTF-8" standalone="no"?>
<!DOCTYPE svg PUBLIC "-//W3C//DTD SVG 1.1//EN" "http://www.w3.org/Graphics/SVG/1.1/DTD/svg11.dtd">
<svg width="100%" height="100%" viewBox="0 0 2411 1103" version="1.1" xmlns="http://www.w3.org/2000/svg" xmlns:xlink="http://www.w3.org/1999/xlink" xml:space="preserve" xmlns:serif="http://www.serif.com/" style="fill-rule:evenodd;clip-rule:evenodd;stroke-linejoin:round;stroke-miterlimit:2;">
    <g transform="matrix(1,0,0,1,-1721,-1336)">
        <g id="Plan-de-travail3" serif:id="Plan de travail3" transform="matrix(1.22572,0,0,1,-392.149,40)">
            <rect x="1724" y="1296" width="1967" height="1103" style="fill:none;"/>
            <g transform="matrix(1,0,0,1,34.3442,0)">
                <g transform="matrix(0.815844,0,0,1,285.588,-40)">
                    <path d="M2122.77,2000.41L2402.12,2162.53L2402.12,2245.5L2449.12,2272.5L2449.12,2377.5L1965.12,2098.5L1965.12,1909.5L2122.77,2000.41ZM2098.72,1976.27L2230.71,2052.86C2284.4,2083.78 2333.77,2112.21 2349.74,2121.4C2353.16,2123.37 2357.26,2123.74 2360.97,2122.41C2367.76,2119.99 2379.06,2115.95 2387.23,2113.03C2392.88,2111.01 2396.43,2105.41 2395.84,2099.43C2394.52,2085.94 2393.37,2060.53 2399.12,2033.5C2400.11,2028.86 2399.8,2025.56 2399.47,2023.85C2399.4,2023.6 2399.48,2023.32 2399.67,2023.14C2399.87,2022.97 2400.15,2022.92 2400.4,2023.02C2412.22,2027.71 2502.12,2063.5 2502.12,2063.5L2508.12,2047.5C2508.12,2047.5 2424.25,2013.95 2412.49,2009.25C2412.18,2009.12 2411.96,2008.86 2411.89,2008.54C2411.83,2008.22 2411.92,2007.88 2412.15,2007.65C2414.47,2005.28 2419.94,1999.69 2420.12,1999.51C2420.14,1999.5 2420.16,1999.49 2420.17,1999.48C2420.55,1999.25 2423.02,1996.61 2424.12,1967.5C2425.07,1942.52 2443.51,1947.54 2443.84,1947.1C2443.84,1947.1 2477.12,1951.26 2490.06,1952.87C2493.21,1953.26 2496.33,1951.99 2498.31,1949.52C2498.31,1949.52 2498.31,1949.52 2498.31,1949.52C2501.28,1945.8 2502.01,1940.77 2500.22,1936.36C2489.55,1910.12 2453.12,1821.5 2453.12,1821.5C2453.12,1821.5 2452.18,1819.46 2456.31,1815.5C2457.7,1814.17 2457.96,1812.05 2457.6,1810.16C2457.23,1808.28 2456.07,1806.65 2454.41,1805.7C2402.29,1775.96 2109.35,1605.8 2109.3,1605.77C2109.16,1605.69 2109.02,1605.62 2108.88,1605.54C2108.7,1605.47 2108.5,1605.37 2108.26,1605.24C2104.57,1603.35 2100.32,1602.87 2096.3,1603.9C2027.45,1621.75 2013.93,1680.22 2013.39,1699.41C2013.37,1700.74 2014.07,1701.97 2015.22,1702.63C2016.37,1703.29 2017.79,1703.28 2018.93,1702.59C2024.37,1699.31 2033.64,1693.72 2042.6,1688.3C2045.47,1686.57 2049.13,1686.86 2051.7,1689.01C2054.26,1691.17 2055.17,1694.72 2053.96,1697.85C2048.39,1712.51 2043.89,1733.5 2047.12,1759.91C2051.41,1794.96 2024.12,1815.5 2024.12,1815.5C2024.12,1815.5 1939.93,1892.96 2047.12,1945.32C2055.31,1949.32 2038.75,1908.57 2051.12,1897.5C2055.38,1893.69 2057.53,1899.12 2058.53,1907.87C2061.76,1935.45 2076.45,1960.21 2098.72,1976.27ZM1937.12,1491.5L2631.12,1897.5C2631.12,1897.5 2692.85,1921.86 2663.12,1856.5C2633.39,1791.14 2503.12,1762.5 2503.12,1762.5L2566.12,1598.5L2296.12,1397.5L2183.12,1500.5C2183.12,1500.5 2113.84,1414.06 1982.12,1412.5C1805.48,1419.97 1937.12,1491.5 1937.12,1491.5ZM2221,1795C2214.55,1795.04 2215.05,1792.35 2225,1791C2238.03,1789.24 2280.13,1783.84 2296,1783C2305.14,1782.52 2319,1789.33 2324,1788C2328.3,1786.85 2321.77,1777.49 2326,1775C2337.89,1768 2359.62,1777.27 2362,1779L2415,1809.03C2424.44,1815.1 2426.4,1817.3 2418.1,1821.05C2414.79,1822.55 2412.53,1827.15 2409,1828C2400,1830.17 2383.17,1829.67 2371,1826C2358.87,1822.34 2350.83,1810.17 2340,1806C2329.38,1801.92 2316.5,1805.67 2307,1803C2298.52,1800.62 2291.77,1791.83 2283,1791C2268.83,1789.67 2242.78,1796.36 2221,1795Z"/>
                </g>
                <g transform="matrix(1,0,0,1,-23.6595,1.89685)">
                    <g transform="matrix(0.738042,0,0,0.904636,531.301,155.086)">
                        <g transform="matrix(389.396,0,0,380.054,2726,1843)">
                            <path d="M0.512,0.016C0.495,0.016 0.477,0.007 0.459,-0.01C0.44,-0.027 0.422,-0.05 0.406,-0.079L0.299,-0.273L0.216,-0.273L0.213,-0.124C0.213,-0.1 0.215,-0.082 0.218,-0.07C0.221,-0.059 0.227,-0.051 0.237,-0.048C0.248,-0.044 0.264,-0.042 0.285,-0.042L0.287,-0.038L0.278,0.004C0.278,0.004 0.275,0.004 0.268,0.003C0.261,0.003 0.253,0.003 0.243,0.002C0.232,0.002 0.221,0.002 0.209,0.001C0.196,0.001 0.184,0.001 0.172,0.001C0.155,0 0.138,0 0.121,0.001C0.103,0.002 0.088,0.002 0.076,0.003C0.063,0.004 0.057,0.004 0.057,0.004L0.066,-0.041C0.097,-0.044 0.118,-0.051 0.128,-0.062C0.137,-0.072 0.142,-0.091 0.142,-0.12L0.143,-0.54C0.143,-0.561 0.141,-0.576 0.136,-0.583C0.131,-0.59 0.121,-0.594 0.106,-0.594C0.1,-0.594 0.093,-0.594 0.085,-0.593C0.076,-0.592 0.072,-0.592 0.072,-0.592L0.07,-0.596L0.077,-0.64C0.077,-0.64 0.081,-0.64 0.089,-0.64C0.096,-0.639 0.106,-0.639 0.118,-0.639C0.13,-0.638 0.142,-0.638 0.155,-0.637C0.168,-0.637 0.179,-0.637 0.188,-0.637C0.197,-0.637 0.208,-0.637 0.222,-0.637C0.235,-0.638 0.249,-0.638 0.263,-0.639C0.276,-0.64 0.288,-0.64 0.297,-0.641C0.306,-0.641 0.311,-0.641 0.311,-0.641C0.373,-0.641 0.422,-0.627 0.458,-0.599C0.494,-0.571 0.512,-0.533 0.512,-0.484C0.512,-0.444 0.499,-0.407 0.473,-0.374C0.448,-0.341 0.412,-0.313 0.365,-0.292L0.475,-0.118C0.494,-0.087 0.513,-0.065 0.532,-0.052C0.55,-0.039 0.572,-0.033 0.599,-0.033L0.603,-0.029L0.597,0.005L0.512,0.016ZM0.321,-0.319C0.321,-0.319 0.327,-0.321 0.338,-0.326C0.348,-0.33 0.361,-0.337 0.375,-0.348C0.389,-0.359 0.402,-0.374 0.412,-0.393C0.424,-0.412 0.429,-0.437 0.429,-0.466C0.429,-0.51 0.414,-0.543 0.384,-0.565C0.353,-0.587 0.307,-0.598 0.246,-0.598C0.239,-0.598 0.235,-0.597 0.233,-0.594C0.23,-0.591 0.229,-0.584 0.228,-0.575C0.225,-0.522 0.223,-0.477 0.222,-0.439C0.22,-0.401 0.219,-0.364 0.218,-0.329L0.321,-0.319Z" style="fill-rule:nonzero;"/>
                        </g>
                        <g transform="matrix(389.396,0,0,380.054,2987.28,1843)">
                            <path d="M0.332,0.01L0.329,0.003L0.333,-0.036C0.356,-0.038 0.374,-0.04 0.387,-0.043C0.4,-0.046 0.409,-0.05 0.414,-0.055C0.419,-0.059 0.422,-0.066 0.422,-0.074C0.422,-0.081 0.421,-0.088 0.42,-0.096C0.419,-0.104 0.416,-0.113 0.413,-0.122L0.38,-0.231C0.368,-0.232 0.351,-0.232 0.33,-0.232L0.276,-0.232C0.257,-0.232 0.236,-0.231 0.216,-0.229C0.195,-0.227 0.178,-0.225 0.167,-0.224L0.13,-0.12C0.124,-0.102 0.121,-0.089 0.121,-0.081C0.121,-0.066 0.126,-0.056 0.136,-0.05C0.145,-0.043 0.16,-0.04 0.181,-0.04L0.238,-0.04L0.24,-0.036L0.234,0.007C0.234,0.007 0.227,0.006 0.213,0.005C0.199,0.004 0.181,0.002 0.16,0.001C0.139,0 0.117,-0 0.095,-0C0.079,-0 0.063,0 0.046,0C0.029,0.001 0.014,0.001 0.003,0.002C-0.009,0.003 -0.015,0.003 -0.015,0.003L-0.007,-0.044C0.012,-0.046 0.027,-0.052 0.038,-0.063C0.049,-0.074 0.06,-0.093 0.071,-0.121L0.266,-0.632L0.329,-0.649L0.337,-0.649L0.362,-0.561C0.369,-0.533 0.378,-0.501 0.389,-0.466C0.399,-0.43 0.41,-0.392 0.422,-0.352C0.433,-0.312 0.445,-0.272 0.458,-0.231C0.471,-0.19 0.483,-0.15 0.496,-0.113C0.504,-0.088 0.515,-0.071 0.529,-0.061C0.542,-0.051 0.563,-0.045 0.592,-0.042L0.594,-0.038L0.587,0.003C0.587,0.003 0.581,0.003 0.568,0.002C0.555,0.001 0.54,0.001 0.523,0C0.506,0 0.492,-0 0.481,-0C0.456,-0 0.432,0.001 0.408,0.002C0.386,0.004 0.367,0.006 0.353,0.007C0.339,0.009 0.332,0.01 0.332,0.01ZM0.185,-0.273L0.273,-0.273C0.286,-0.273 0.302,-0.274 0.321,-0.275C0.34,-0.276 0.355,-0.277 0.366,-0.278L0.287,-0.54L0.28,-0.54L0.185,-0.273Z" style="fill-rule:nonzero;"/>
                        </g>
                        <g transform="matrix(389.396,0,0,380.054,3238.06,1843)">
                            <path d="M0.584,0.095C0.535,0.019 0.475,-0.107 0.43,-0.174C0.385,-0.241 0.346,-0.299 0.311,-0.349C0.276,-0.4 0.249,-0.439 0.229,-0.468C0.208,-0.497 0.198,-0.511 0.198,-0.511L0.193,-0.511L0.188,-0.084C0.188,-0.069 0.19,-0.059 0.195,-0.053C0.2,-0.047 0.208,-0.044 0.219,-0.044C0.222,-0.044 0.228,-0.044 0.236,-0.045C0.245,-0.045 0.253,-0.045 0.26,-0.045L0.27,-0.045L0.272,-0.041L0.263,0.004C0.263,0.004 0.26,0.004 0.253,0.003C0.246,0.003 0.237,0.003 0.226,0.002C0.215,0.001 0.204,0.001 0.192,0C0.179,0 0.168,-0 0.157,-0C0.144,-0 0.13,0.001 0.116,0.002C0.101,0.003 0.089,0.005 0.079,0.006C0.069,0.007 0.064,0.008 0.064,0.008L0.069,-0.038C0.09,-0.041 0.105,-0.047 0.115,-0.056C0.125,-0.065 0.13,-0.08 0.131,-0.101L0.144,-0.538C0.144,-0.559 0.138,-0.573 0.126,-0.582C0.113,-0.591 0.09,-0.597 0.057,-0.6L0.054,-0.605L0.062,-0.642C0.062,-0.642 0.067,-0.642 0.078,-0.641C0.088,-0.64 0.1,-0.64 0.114,-0.639C0.127,-0.637 0.139,-0.637 0.148,-0.637C0.159,-0.637 0.17,-0.637 0.18,-0.638C0.19,-0.639 0.198,-0.639 0.205,-0.64C0.212,-0.641 0.215,-0.641 0.215,-0.641C0.248,-0.59 0.281,-0.54 0.314,-0.491C0.346,-0.442 0.376,-0.397 0.405,-0.355C0.434,-0.313 0.459,-0.276 0.481,-0.245C0.503,-0.214 0.52,-0.189 0.533,-0.172C0.545,-0.154 0.551,-0.145 0.551,-0.145L0.556,-0.145L0.556,-0.55C0.556,-0.565 0.553,-0.576 0.548,-0.583C0.543,-0.59 0.534,-0.593 0.523,-0.593C0.514,-0.593 0.506,-0.593 0.498,-0.593C0.489,-0.592 0.485,-0.592 0.485,-0.592L0.483,-0.596L0.492,-0.641C0.492,-0.641 0.495,-0.641 0.502,-0.641C0.509,-0.64 0.517,-0.64 0.527,-0.639C0.537,-0.638 0.547,-0.638 0.558,-0.637C0.569,-0.637 0.578,-0.637 0.587,-0.637C0.601,-0.637 0.616,-0.638 0.631,-0.639C0.646,-0.64 0.659,-0.642 0.67,-0.643C0.681,-0.644 0.686,-0.645 0.686,-0.645L0.681,-0.599C0.658,-0.596 0.642,-0.59 0.63,-0.58C0.62,-0.57 0.614,-0.555 0.613,-0.536L0.613,0.081L0.584,0.095Z" style="fill-rule:nonzero;"/>
                        </g>
                        <g transform="matrix(389.396,0,0,380.054,3541.39,1843)">
                            <path d="M0.339,0.012C0.278,0.012 0.226,-0.001 0.181,-0.026C0.136,-0.051 0.102,-0.087 0.077,-0.134C0.052,-0.18 0.04,-0.234 0.04,-0.297C0.04,-0.348 0.049,-0.395 0.066,-0.438C0.083,-0.481 0.108,-0.518 0.139,-0.55C0.17,-0.581 0.207,-0.606 0.25,-0.623C0.292,-0.64 0.338,-0.649 0.389,-0.649C0.41,-0.649 0.43,-0.648 0.451,-0.646C0.472,-0.643 0.49,-0.64 0.507,-0.637C0.524,-0.634 0.537,-0.631 0.548,-0.628C0.558,-0.626 0.563,-0.625 0.563,-0.625L0.567,-0.619C0.567,-0.619 0.565,-0.612 0.562,-0.597C0.559,-0.582 0.555,-0.561 0.551,-0.536C0.547,-0.511 0.544,-0.483 0.542,-0.452L0.494,-0.448C0.494,-0.448 0.495,-0.454 0.496,-0.465C0.497,-0.475 0.497,-0.486 0.497,-0.497C0.497,-0.528 0.485,-0.552 0.461,-0.567C0.436,-0.582 0.399,-0.59 0.35,-0.59C0.305,-0.59 0.267,-0.579 0.234,-0.558C0.201,-0.537 0.175,-0.507 0.157,-0.468C0.139,-0.429 0.13,-0.383 0.13,-0.33C0.13,-0.271 0.14,-0.22 0.159,-0.177C0.178,-0.133 0.204,-0.099 0.238,-0.075C0.273,-0.05 0.313,-0.038 0.359,-0.038C0.404,-0.038 0.441,-0.051 0.469,-0.077C0.496,-0.102 0.516,-0.142 0.529,-0.196L0.577,-0.2C0.577,-0.2 0.576,-0.195 0.574,-0.185C0.572,-0.175 0.57,-0.162 0.567,-0.146C0.564,-0.129 0.561,-0.112 0.558,-0.093C0.555,-0.074 0.552,-0.055 0.55,-0.037L0.544,-0.028C0.544,-0.028 0.535,-0.025 0.518,-0.018C0.5,-0.011 0.476,-0.005 0.445,0.002C0.414,0.009 0.379,0.012 0.339,0.012Z" style="fill-rule:nonzero;"/>
                        </g>
                        <g transform="matrix(389.396,0,0,380.054,3808.52,1843)">
                            <path d="M0.058,0.012L0.064,-0.034C0.095,-0.04 0.116,-0.049 0.127,-0.061C0.137,-0.072 0.142,-0.092 0.142,-0.12L0.143,-0.54C0.143,-0.561 0.141,-0.576 0.136,-0.583C0.131,-0.59 0.121,-0.594 0.106,-0.594C0.102,-0.594 0.097,-0.594 0.09,-0.594C0.083,-0.593 0.077,-0.593 0.072,-0.592L0.07,-0.596L0.077,-0.64C0.092,-0.639 0.111,-0.639 0.134,-0.638C0.156,-0.637 0.174,-0.637 0.188,-0.637C0.201,-0.637 0.217,-0.638 0.237,-0.64C0.258,-0.641 0.277,-0.643 0.295,-0.646L0.291,-0.601C0.272,-0.598 0.259,-0.595 0.25,-0.59C0.241,-0.585 0.234,-0.576 0.232,-0.565C0.229,-0.553 0.226,-0.535 0.225,-0.511L0.219,-0.349L0.387,-0.348C0.409,-0.348 0.431,-0.349 0.452,-0.35C0.473,-0.351 0.501,-0.354 0.535,-0.358L0.536,-0.54C0.536,-0.561 0.534,-0.576 0.529,-0.583C0.524,-0.59 0.514,-0.594 0.499,-0.594C0.494,-0.594 0.489,-0.594 0.483,-0.594C0.476,-0.593 0.47,-0.593 0.465,-0.592L0.463,-0.596L0.47,-0.64C0.47,-0.64 0.476,-0.64 0.488,-0.639C0.5,-0.638 0.514,-0.638 0.529,-0.637C0.544,-0.637 0.557,-0.637 0.568,-0.637C0.583,-0.637 0.601,-0.638 0.624,-0.64C0.647,-0.641 0.668,-0.643 0.688,-0.646L0.684,-0.601C0.659,-0.598 0.643,-0.592 0.634,-0.585C0.626,-0.577 0.621,-0.563 0.62,-0.544C0.618,-0.505 0.616,-0.465 0.615,-0.423C0.613,-0.38 0.611,-0.339 0.61,-0.299C0.609,-0.258 0.608,-0.221 0.607,-0.188C0.606,-0.155 0.606,-0.127 0.606,-0.106C0.606,-0.081 0.609,-0.065 0.615,-0.057C0.621,-0.048 0.633,-0.044 0.65,-0.044C0.657,-0.044 0.665,-0.044 0.674,-0.045C0.683,-0.046 0.69,-0.046 0.695,-0.047L0.697,-0.043L0.688,0.003C0.671,0.002 0.651,0.002 0.626,0.001C0.601,0 0.581,-0 0.565,-0C0.557,-0 0.546,0 0.533,0C0.519,0.001 0.505,0.001 0.49,0.001C0.475,0.001 0.462,0.001 0.45,0.002L0.459,-0.043C0.48,-0.044 0.496,-0.047 0.507,-0.052C0.518,-0.057 0.525,-0.068 0.529,-0.083C0.533,-0.098 0.535,-0.121 0.535,-0.15L0.535,-0.301C0.52,-0.301 0.502,-0.301 0.483,-0.302C0.464,-0.302 0.445,-0.302 0.427,-0.302L0.383,-0.302C0.376,-0.302 0.364,-0.302 0.346,-0.301C0.329,-0.3 0.309,-0.298 0.285,-0.297C0.263,-0.295 0.24,-0.293 0.217,-0.291L0.213,-0.112C0.213,-0.085 0.216,-0.067 0.222,-0.058C0.228,-0.049 0.24,-0.044 0.257,-0.044C0.264,-0.044 0.272,-0.044 0.281,-0.045C0.29,-0.046 0.297,-0.046 0.302,-0.047L0.304,-0.043L0.295,0.003C0.295,0.002 0.29,0.002 0.28,0.001C0.27,0.001 0.258,0.001 0.245,0C0.232,0 0.22,-0 0.21,-0C0.19,-0 0.168,0.001 0.145,0.002C0.121,0.003 0.101,0.005 0.084,0.006C0.067,0.008 0.059,0.01 0.058,0.012Z" style="fill-rule:nonzero;"/>
                        </g>
                    </g>
                    <g id="Industries" transform="matrix(0.825641,0,0,0.99478,2260.12,1231.53)">
                        <g transform="matrix(194.164,0,0,194.164,443,865)">
                            <rect x="0.045" y="-0.718" width="0.096" height="0.718" style="fill-rule:nonzero;"/>
                        </g>
                        <g transform="matrix(194.164,0,0,194.164,523.19,865)">
                            <path d="M0.244,-0.371L0.244,-0.718L0.34,-0.718L0.34,-0L0.244,-0L0.244,-0.143L0.141,-0.47L0.141,-0L0.045,-0L0.045,-0.718L0.141,-0.718L0.244,-0.371Z" style="fill-rule:nonzero;"/>
                        </g>
                        <g transform="matrix(194.164,0,0,194.164,642.018,865)">
                            <path d="M0.045,-0L0.045,-0.718L0.212,-0.718C0.302,-0.718 0.347,-0.672 0.347,-0.58L0.347,-0.104C0.347,-0.035 0.309,-0 0.232,-0L0.045,-0ZM0.141,-0.087L0.213,-0.087C0.238,-0.087 0.251,-0.098 0.251,-0.119L0.251,-0.579C0.251,-0.614 0.237,-0.631 0.208,-0.631L0.141,-0.631L0.141,-0.087Z" style="fill-rule:nonzero;"/>
                        </g>
                        <g transform="matrix(194.164,0,0,194.164,761.235,865)">
                            <path d="M0.357,-0.718L0.357,-0.136C0.357,-0.045 0.318,-0 0.241,-0L0.16,-0C0.083,-0 0.045,-0.046 0.045,-0.137L0.045,-0.718L0.141,-0.718L0.141,-0.134C0.141,-0.103 0.155,-0.087 0.183,-0.087L0.222,-0.087C0.248,-0.087 0.261,-0.103 0.261,-0.134L0.261,-0.718L0.357,-0.718Z" style="fill-rule:nonzero;"/>
                        </g>
                        <g transform="matrix(194.164,0,0,194.164,883.364,865)">
                            <path d="M0.229,-0.525L0.229,-0.588C0.229,-0.617 0.215,-0.631 0.187,-0.631L0.172,-0.631C0.145,-0.631 0.131,-0.617 0.131,-0.588L0.131,-0.469C0.131,-0.456 0.134,-0.447 0.139,-0.442C0.144,-0.437 0.153,-0.431 0.165,-0.424L0.256,-0.375C0.276,-0.364 0.29,-0.355 0.299,-0.348C0.307,-0.342 0.313,-0.335 0.318,-0.326C0.323,-0.317 0.325,-0.299 0.325,-0.274L0.325,-0.121C0.325,-0.04 0.286,-0 0.209,-0L0.15,-0C0.073,-0 0.035,-0.044 0.035,-0.132L0.035,-0.168L0.131,-0.168L0.131,-0.129C0.131,-0.101 0.145,-0.087 0.174,-0.087L0.191,-0.087C0.216,-0.087 0.229,-0.101 0.229,-0.129L0.229,-0.251C0.229,-0.264 0.226,-0.273 0.221,-0.278C0.216,-0.283 0.207,-0.289 0.195,-0.296L0.104,-0.347C0.084,-0.358 0.07,-0.367 0.061,-0.374C0.051,-0.381 0.045,-0.391 0.041,-0.403C0.037,-0.414 0.035,-0.429 0.035,-0.448L0.035,-0.595C0.035,-0.677 0.073,-0.718 0.15,-0.718L0.21,-0.718C0.287,-0.718 0.325,-0.677 0.325,-0.595L0.325,-0.525L0.229,-0.525Z" style="fill-rule:nonzero;"/>
                        </g>
                        <g transform="matrix(194.164,0,0,194.164,997.338,865)">
                            <path d="M0.198,-0.631L0.198,-0L0.102,-0L0.102,-0.631L0.01,-0.631L0.01,-0.718L0.29,-0.718L0.29,-0.631L0.198,-0.631Z" style="fill-rule:nonzero;"/>
                        </g>
                        <g transform="matrix(194.164,0,0,194.164,1099.66,865)">
                            <path d="M0.045,-0.718L0.233,-0.718C0.306,-0.718 0.343,-0.677 0.343,-0.595L0.343,-0.418C0.343,-0.355 0.324,-0.316 0.286,-0.299L0.353,-0L0.262,-0L0.199,-0.29L0.141,-0.29L0.141,-0L0.045,-0L0.045,-0.718ZM0.141,-0.372L0.204,-0.372C0.233,-0.372 0.247,-0.389 0.247,-0.424L0.247,-0.579C0.247,-0.614 0.233,-0.631 0.204,-0.631L0.141,-0.631L0.141,-0.372Z" style="fill-rule:nonzero;"/>
                        </g>
                        <g transform="matrix(194.164,0,0,194.164,1217.13,865)">
                            <rect x="0.045" y="-0.718" width="0.096" height="0.718" style="fill-rule:nonzero;"/>
                        </g>
                        <g transform="matrix(194.164,0,0,194.164,1297.32,865)">
                            <path d="M0.045,-0L0.045,-0.718L0.283,-0.718L0.283,-0.631L0.141,-0.631L0.141,-0.413L0.267,-0.413L0.267,-0.326L0.141,-0.326L0.141,-0.087L0.283,-0.087L0.283,-0L0.045,-0Z" style="fill-rule:nonzero;"/>
                        </g>
                        <g transform="matrix(194.164,0,0,194.164,1401.01,865)">
                            <path d="M0.229,-0.525L0.229,-0.588C0.229,-0.617 0.215,-0.631 0.187,-0.631L0.172,-0.631C0.145,-0.631 0.131,-0.617 0.131,-0.588L0.131,-0.469C0.131,-0.456 0.134,-0.447 0.139,-0.442C0.144,-0.437 0.153,-0.431 0.165,-0.424L0.256,-0.375C0.276,-0.364 0.29,-0.355 0.299,-0.348C0.307,-0.342 0.313,-0.335 0.318,-0.326C0.323,-0.317 0.325,-0.299 0.325,-0.274L0.325,-0.121C0.325,-0.04 0.286,-0 0.209,-0L0.15,-0C0.073,-0 0.035,-0.044 0.035,-0.132L0.035,-0.168L0.131,-0.168L0.131,-0.129C0.131,-0.101 0.145,-0.087 0.174,-0.087L0.191,-0.087C0.216,-0.087 0.229,-0.101 0.229,-0.129L0.229,-0.251C0.229,-0.264 0.226,-0.273 0.221,-0.278C0.216,-0.283 0.207,-0.289 0.195,-0.296L0.104,-0.347C0.084,-0.358 0.07,-0.367 0.061,-0.374C0.051,-0.381 0.045,-0.391 0.041,-0.403C0.037,-0.414 0.035,-0.429 0.035,-0.448L0.035,-0.595C0.035,-0.677 0.073,-0.718 0.15,-0.718L0.21,-0.718C0.287,-0.718 0.325,-0.677 0.325,-0.595L0.325,-0.525L0.229,-0.525Z" style="fill-rule:nonzero;"/>
                        </g>
                    </g>
                </g>
            </g>
            <g id="Calque2">
            </g>
        </g>
    </g>
</svg>
