<?xml version="1.0" encoding="UTF-8" standalone="no"?>
<!DOCTYPE svg PUBLIC "-//W3C//DTD SVG 1.1//EN" "http://www.w3.org/Graphics/SVG/1.1/DTD/svg11.dtd">
<svg width="100%" height="100%" viewBox="0 0 1920 547" version="1.1" xmlns="http://www.w3.org/2000/svg" xmlns:xlink="http://www.w3.org/1999/xlink" xml:space="preserve" xmlns:serif="http://www.serif.com/" style="fill-rule:evenodd;clip-rule:evenodd;stroke-linejoin:round;stroke-miterlimit:2;">
    <g transform="matrix(1,0,0,1,0,-82.5063)">
        <g transform="matrix(1,0,0,3.63088,0,0)">
            <g transform="matrix(1,0,0,0.275415,0,0)">
                <path d="M0,443.138C350.104,407.302 556.632,551.589 556.632,551.589C556.632,551.589 843.319,726.053 941.396,551.589C1039.47,377.125 1150.75,283.763 1345.02,409.188C1539.29,534.614 1622.81,588.368 1726.06,596.855C1829.31,605.342 1920,551.589 1920,551.589L1920,82.506L0,82.506" style="fill:url(#_Linear1);"/>
            </g>
        </g>
    </g>
    <defs>
        <linearGradient id="_Linear1" x1="0" y1="0" x2="1" y2="0" gradientUnits="userSpaceOnUse" gradientTransform="matrix(-804.056,-441.902,441.902,-804.056,1217.9,524.408)"><stop offset="0" style="stop-color:rgb(254,195,108);stop-opacity:1"/><stop offset="1" style="stop-color:rgb(239,142,0);stop-opacity:1"/></linearGradient>
    </defs>
</svg>
