<?xml version="1.0" encoding="UTF-8" standalone="no"?>
<!DOCTYPE svg PUBLIC "-//W3C//DTD SVG 1.1//EN" "http://www.w3.org/Graphics/SVG/1.1/DTD/svg11.dtd">
<svg width="100%" height="100%" viewBox="0 0 203 49" version="1.1" xmlns="http://www.w3.org/2000/svg" xmlns:xlink="http://www.w3.org/1999/xlink" xml:space="preserve" xmlns:serif="http://www.serif.com/" style="fill-rule:evenodd;clip-rule:evenodd;stroke-linejoin:round;stroke-miterlimit:2;">
    <g transform="matrix(1,0,0,1,-4257.28,-1054.89)">
        <g transform="matrix(1,0,0,6.21368,2556.92,0)">
            <g transform="matrix(1,0,0,0.160935,-2556.92,0)">
                <path d="M4277.88,1054.89L4257.28,1054.89L4287.88,1103.17L4308.48,1103.17L4277.88,1054.89ZM4315.75,1054.89L4295.16,1054.89L4325.75,1103.17L4346.35,1103.17L4315.75,1054.89ZM4429.38,1054.89L4408.78,1054.89L4439.38,1103.17L4459.98,1103.17L4429.38,1054.89ZM4353.63,1054.89L4333.03,1054.89L4363.63,1103.17L4384.23,1103.17L4353.63,1054.89ZM4391.5,1054.89L4370.9,1054.89L4401.5,1103.17L4422.1,1103.17L4391.5,1054.89Z" style="fill:rgb(26,26,28);"/>
            </g>
        </g>
    </g>
</svg>
