<?xml version="1.0" encoding="UTF-8" standalone="no"?>
<!DOCTYPE svg PUBLIC "-//W3C//DTD SVG 1.1//EN" "http://www.w3.org/Graphics/SVG/1.1/DTD/svg11.dtd">
<svg width="100%" height="100%" viewBox="0 0 176 50" version="1.1" xmlns="http://www.w3.org/2000/svg" xmlns:xlink="http://www.w3.org/1999/xlink" xml:space="preserve" xmlns:serif="http://www.serif.com/" style="fill-rule:evenodd;clip-rule:evenodd;stroke-linejoin:round;stroke-miterlimit:2;">
    <g transform="matrix(1,0,0,1,-398.922,-3715.26)">
        <g transform="matrix(1,0,0,3.63088,0,0)">
            <g transform="matrix(1,0,0,0.275415,0,-6.26221e-13)">
                <path d="M530.427,3752.24C533.858,3752.24 536.643,3755.03 536.643,3758.46C536.643,3761.89 533.858,3764.67 530.427,3764.67C526.997,3764.67 524.212,3761.89 524.212,3758.46C524.212,3755.03 526.997,3752.24 530.427,3752.24ZM549.373,3752.24C552.804,3752.24 555.589,3755.03 555.589,3758.46C555.589,3761.89 552.804,3764.67 549.373,3764.67C545.942,3764.67 543.157,3761.89 543.157,3758.46C543.157,3755.03 545.942,3752.24 549.373,3752.24ZM530.427,3733.75C533.858,3733.75 536.643,3736.53 536.643,3739.97C536.643,3743.4 533.858,3746.18 530.427,3746.18C526.997,3746.18 524.212,3743.4 524.212,3739.97C524.212,3736.53 526.997,3733.75 530.427,3733.75ZM568.319,3733.75C571.749,3733.75 574.534,3736.53 574.534,3739.97C574.534,3743.4 571.749,3746.18 568.319,3746.18C564.888,3746.18 562.103,3743.4 562.103,3739.97C562.103,3736.53 564.888,3733.75 568.319,3733.75ZM488.664,3733.75C492.095,3733.75 494.88,3736.53 494.88,3739.97C494.88,3743.4 492.095,3746.18 488.664,3746.18C485.234,3746.18 482.449,3743.4 482.449,3739.97C482.449,3736.53 485.234,3733.75 488.664,3733.75ZM467.783,3733.75C471.213,3733.75 473.999,3736.53 473.999,3739.97C473.999,3743.4 471.213,3746.18 467.783,3746.18C464.352,3746.18 461.567,3743.4 461.567,3739.97C461.567,3736.53 464.352,3733.75 467.783,3733.75ZM509.546,3733.75C512.976,3733.75 515.762,3736.53 515.762,3739.97C515.762,3743.4 512.976,3746.18 509.546,3746.18C506.115,3746.18 503.33,3743.4 503.33,3739.97C503.33,3736.53 506.115,3733.75 509.546,3733.75ZM549.373,3733.75C552.804,3733.75 555.589,3736.53 555.589,3739.97C555.589,3743.4 552.804,3746.18 549.373,3746.18C545.942,3746.18 543.157,3743.4 543.157,3739.97C543.157,3736.53 545.942,3733.75 549.373,3733.75ZM530.427,3715.26C533.858,3715.26 536.643,3718.04 536.643,3721.47C536.643,3724.9 533.858,3727.69 530.427,3727.69C526.997,3727.69 524.212,3724.9 524.212,3721.47C524.212,3718.04 526.997,3715.26 530.427,3715.26ZM568.319,3715.26C571.749,3715.26 574.534,3718.04 574.534,3721.47C574.534,3724.9 571.749,3727.69 568.319,3727.69C564.888,3727.69 562.103,3724.9 562.103,3721.47C562.103,3718.04 564.888,3715.26 568.319,3715.26ZM488.664,3715.26C492.095,3715.26 494.88,3718.04 494.88,3721.47C494.88,3724.9 492.095,3727.69 488.664,3727.69C485.234,3727.69 482.449,3724.9 482.449,3721.47C482.449,3718.04 485.234,3715.26 488.664,3715.26ZM467.783,3715.26C471.213,3715.26 473.999,3718.04 473.999,3721.47C473.999,3724.9 471.213,3727.69 467.783,3727.69C464.352,3727.69 461.567,3724.9 461.567,3721.47C461.567,3718.04 464.352,3715.26 467.783,3715.26ZM446.901,3715.26C450.332,3715.26 453.117,3718.04 453.117,3721.47C453.117,3724.9 450.332,3727.69 446.901,3727.69C443.471,3727.69 440.685,3724.9 440.685,3721.47C440.685,3718.04 443.471,3715.26 446.901,3715.26ZM426.02,3715.26C429.45,3715.26 432.236,3718.04 432.236,3721.47C432.236,3724.9 429.45,3727.69 426.02,3727.69C422.589,3727.69 419.804,3724.9 419.804,3721.47C419.804,3718.04 422.589,3715.26 426.02,3715.26ZM405.138,3715.26C408.569,3715.26 411.354,3718.04 411.354,3721.47C411.354,3724.9 408.569,3727.69 405.138,3727.69C401.708,3727.69 398.922,3724.9 398.922,3721.47C398.922,3718.04 401.708,3715.26 405.138,3715.26ZM509.546,3715.26C512.976,3715.26 515.762,3718.04 515.762,3721.47C515.762,3724.9 512.976,3727.69 509.546,3727.69C506.115,3727.69 503.33,3724.9 503.33,3721.47C503.33,3718.04 506.115,3715.26 509.546,3715.26ZM549.373,3715.26C552.804,3715.26 555.589,3718.04 555.589,3721.47C555.589,3724.9 552.804,3727.69 549.373,3727.69C545.942,3727.69 543.157,3724.9 543.157,3721.47C543.157,3718.04 545.942,3715.26 549.373,3715.26Z" style="fill:rgb(197,200,213);"/>
            </g>
        </g>
    </g>
</svg>
