<?xml version="1.0" encoding="UTF-8" standalone="no"?>
<!DOCTYPE svg PUBLIC "-//W3C//DTD SVG 1.1//EN" "http://www.w3.org/Graphics/SVG/1.1/DTD/svg11.dtd">
<svg width="100%" height="100%" viewBox="0 0 233 50" version="1.1" xmlns="http://www.w3.org/2000/svg" xmlns:xlink="http://www.w3.org/1999/xlink" xml:space="preserve" xmlns:serif="http://www.serif.com/" style="fill-rule:evenodd;clip-rule:evenodd;stroke-linejoin:round;stroke-miterlimit:2;">
    <g transform="matrix(1,0,0,1,-435.596,-1413.12)">
        <g transform="matrix(1,0,0,1,25.8735,501.138)">
            <g transform="matrix(1,0,0,1,-25.8735,-501.138)">
                <path d="M567.101,1450.1C570.532,1450.1 573.317,1452.88 573.317,1456.31C573.317,1459.75 570.532,1462.53 567.101,1462.53C563.671,1462.53 560.885,1459.75 560.885,1456.31C560.885,1452.88 563.671,1450.1 567.101,1450.1ZM586.047,1450.1C589.477,1450.1 592.263,1452.88 592.263,1456.31C592.263,1459.75 589.477,1462.53 586.047,1462.53C582.616,1462.53 579.831,1459.75 579.831,1456.31C579.831,1452.88 582.616,1450.1 586.047,1450.1ZM604.992,1450.1C608.423,1450.1 611.208,1452.88 611.208,1456.31C611.208,1459.75 608.423,1462.53 604.992,1462.53C601.562,1462.53 598.777,1459.75 598.777,1456.31C598.777,1452.88 601.562,1450.1 604.992,1450.1ZM623.938,1450.1C627.369,1450.1 630.154,1452.88 630.154,1456.31C630.154,1459.75 627.369,1462.53 623.938,1462.53C620.507,1462.53 617.722,1459.75 617.722,1456.31C617.722,1452.88 620.507,1450.1 623.938,1450.1ZM567.101,1431.61C570.532,1431.61 573.317,1434.39 573.317,1437.82C573.317,1441.25 570.532,1444.04 567.101,1444.04C563.671,1444.04 560.885,1441.25 560.885,1437.82C560.885,1434.39 563.671,1431.61 567.101,1431.61ZM586.047,1431.61C589.477,1431.61 592.263,1434.39 592.263,1437.82C592.263,1441.25 589.477,1444.04 586.047,1444.04C582.616,1444.04 579.831,1441.25 579.831,1437.82C579.831,1434.39 582.616,1431.61 586.047,1431.61ZM604.992,1431.61C608.423,1431.61 611.208,1434.39 611.208,1437.82C611.208,1441.25 608.423,1444.04 604.992,1444.04C601.562,1444.04 598.777,1441.25 598.777,1437.82C598.777,1434.39 601.562,1431.61 604.992,1431.61ZM623.938,1431.61C627.369,1431.61 630.154,1434.39 630.154,1437.82C630.154,1441.25 627.369,1444.04 623.938,1444.04C620.507,1444.04 617.722,1441.25 617.722,1437.82C617.722,1434.39 620.507,1431.61 623.938,1431.61ZM642.884,1431.61C646.314,1431.61 649.099,1434.39 649.099,1437.82C649.099,1441.25 646.314,1444.04 642.884,1444.04C639.453,1444.04 636.668,1441.25 636.668,1437.82C636.668,1434.39 639.453,1431.61 642.884,1431.61ZM546.22,1431.61C549.65,1431.61 552.436,1434.39 552.436,1437.82C552.436,1441.25 549.65,1444.04 546.22,1444.04C542.789,1444.04 540.004,1441.25 540.004,1437.82C540.004,1434.39 542.789,1431.61 546.22,1431.61ZM525.338,1431.61C528.769,1431.61 531.554,1434.39 531.554,1437.82C531.554,1441.25 528.769,1444.04 525.338,1444.04C521.908,1444.04 519.122,1441.25 519.122,1437.82C519.122,1434.39 521.908,1431.61 525.338,1431.61ZM504.457,1431.61C507.887,1431.61 510.673,1434.39 510.673,1437.82C510.673,1441.25 507.887,1444.04 504.457,1444.04C501.026,1444.04 498.241,1441.25 498.241,1437.82C498.241,1434.39 501.026,1431.61 504.457,1431.61ZM483.575,1431.61C487.006,1431.61 489.791,1434.39 489.791,1437.82C489.791,1441.25 487.006,1444.04 483.575,1444.04C480.145,1444.04 477.359,1441.25 477.359,1437.82C477.359,1434.39 480.145,1431.61 483.575,1431.61ZM462.694,1431.61C466.124,1431.61 468.909,1434.39 468.909,1437.82C468.909,1441.25 466.124,1444.04 462.694,1444.04C459.263,1444.04 456.478,1441.25 456.478,1437.82C456.478,1434.39 459.263,1431.61 462.694,1431.61ZM567.101,1413.12C570.532,1413.12 573.317,1415.9 573.317,1419.33C573.317,1422.76 570.532,1425.55 567.101,1425.55C563.671,1425.55 560.885,1422.76 560.885,1419.33C560.885,1415.9 563.671,1413.12 567.101,1413.12ZM586.047,1413.12C589.477,1413.12 592.263,1415.9 592.263,1419.33C592.263,1422.76 589.477,1425.55 586.047,1425.55C582.616,1425.55 579.831,1422.76 579.831,1419.33C579.831,1415.9 582.616,1413.12 586.047,1413.12ZM604.992,1413.12C608.423,1413.12 611.208,1415.9 611.208,1419.33C611.208,1422.76 608.423,1425.55 604.992,1425.55C601.562,1425.55 598.777,1422.76 598.777,1419.33C598.777,1415.9 601.562,1413.12 604.992,1413.12ZM623.938,1413.12C627.369,1413.12 630.154,1415.9 630.154,1419.33C630.154,1422.76 627.369,1425.55 623.938,1425.55C620.507,1425.55 617.722,1422.76 617.722,1419.33C617.722,1415.9 620.507,1413.12 623.938,1413.12ZM642.884,1413.12C646.314,1413.12 649.099,1415.9 649.099,1419.33C649.099,1422.76 646.314,1425.55 642.884,1425.55C639.453,1425.55 636.668,1422.76 636.668,1419.33C636.668,1415.9 639.453,1413.12 642.884,1413.12ZM661.829,1413.12C665.26,1413.12 668.045,1415.9 668.045,1419.33C668.045,1422.76 665.26,1425.55 661.829,1425.55C658.399,1425.55 655.613,1422.76 655.613,1419.33C655.613,1415.9 658.399,1413.12 661.829,1413.12ZM546.22,1413.12C549.65,1413.12 552.436,1415.9 552.436,1419.33C552.436,1422.76 549.65,1425.55 546.22,1425.55C542.789,1425.55 540.004,1422.76 540.004,1419.33C540.004,1415.9 542.789,1413.12 546.22,1413.12ZM525.338,1413.12C528.769,1413.12 531.554,1415.9 531.554,1419.33C531.554,1422.76 528.769,1425.55 525.338,1425.55C521.908,1425.55 519.122,1422.76 519.122,1419.33C519.122,1415.9 521.908,1413.12 525.338,1413.12ZM504.457,1413.12C507.887,1413.12 510.673,1415.9 510.673,1419.33C510.673,1422.76 507.887,1425.55 504.457,1425.55C501.026,1425.55 498.241,1422.76 498.241,1419.33C498.241,1415.9 501.026,1413.12 504.457,1413.12ZM483.575,1413.12C487.006,1413.12 489.791,1415.9 489.791,1419.33C489.791,1422.76 487.006,1425.55 483.575,1425.55C480.145,1425.55 477.359,1422.76 477.359,1419.33C477.359,1415.9 480.145,1413.12 483.575,1413.12ZM462.694,1413.12C466.124,1413.12 468.909,1415.9 468.909,1419.33C468.909,1422.76 466.124,1425.55 462.694,1425.55C459.263,1425.55 456.478,1422.76 456.478,1419.33C456.478,1415.9 459.263,1413.12 462.694,1413.12ZM441.812,1413.12C445.243,1413.12 448.028,1415.9 448.028,1419.33C448.028,1422.76 445.243,1425.55 441.812,1425.55C438.382,1425.55 435.596,1422.76 435.596,1419.33C435.596,1415.9 438.382,1413.12 441.812,1413.12Z" style="fill:rgb(203,206,219);"/>
            </g>
        </g>
    </g>
</svg>
