<?xml version="1.0" encoding="UTF-8" standalone="no"?>
<!DOCTYPE svg PUBLIC "-//W3C//DTD SVG 1.1//EN" "http://www.w3.org/Graphics/SVG/1.1/DTD/svg11.dtd">
<svg width="100%" height="100%" viewBox="0 0 233 87" version="1.1" xmlns="http://www.w3.org/2000/svg" xmlns:xlink="http://www.w3.org/1999/xlink" xml:space="preserve" xmlns:serif="http://www.serif.com/" style="fill-rule:evenodd;clip-rule:evenodd;stroke-linejoin:round;stroke-miterlimit:2;">
    <g transform="matrix(1,0,0,1,-200.963,-3397.91)">
        <g transform="matrix(1,0,0,3.63088,0,0)">
            <g transform="matrix(1,0,1.2326e-31,0.275415,0,0)">
                <path d="M301.907,3484.35C298.476,3484.35 295.691,3481.57 295.691,3478.14C295.691,3474.71 298.476,3471.92 301.907,3471.92C305.337,3471.92 308.122,3474.71 308.122,3478.14C308.122,3481.57 305.337,3484.35 301.907,3484.35ZM282.961,3484.35C279.53,3484.35 276.745,3481.57 276.745,3478.14C276.745,3474.71 279.53,3471.92 282.961,3471.92C286.392,3471.92 289.177,3474.71 289.177,3478.14C289.177,3481.57 286.392,3484.35 282.961,3484.35ZM264.015,3484.35C260.585,3484.35 257.8,3481.57 257.8,3478.14C257.8,3474.71 260.585,3471.92 264.015,3471.92C267.446,3471.92 270.231,3474.71 270.231,3478.14C270.231,3481.57 267.446,3484.35 264.015,3484.35ZM245.07,3484.35C241.639,3484.35 238.854,3481.57 238.854,3478.14C238.854,3474.71 241.639,3471.92 245.07,3471.92C248.5,3471.92 251.286,3474.71 251.286,3478.14C251.286,3481.57 248.5,3484.35 245.07,3484.35ZM226.124,3484.35C222.694,3484.35 219.908,3481.57 219.908,3478.14C219.908,3474.71 222.694,3471.92 226.124,3471.92C229.555,3471.92 232.34,3474.71 232.34,3478.14C232.34,3481.57 229.555,3484.35 226.124,3484.35ZM207.179,3484.35C203.748,3484.35 200.963,3481.57 200.963,3478.14C200.963,3474.71 203.748,3471.92 207.179,3471.92C210.609,3471.92 213.394,3474.71 213.394,3478.14C213.394,3481.57 210.609,3484.35 207.179,3484.35ZM322.788,3484.35C319.358,3484.35 316.572,3481.57 316.572,3478.14C316.572,3474.71 319.358,3471.92 322.788,3471.92C326.219,3471.92 329.004,3474.71 329.004,3478.14C329.004,3481.57 326.219,3484.35 322.788,3484.35ZM343.67,3484.35C340.239,3484.35 337.454,3481.57 337.454,3478.14C337.454,3474.71 340.239,3471.92 343.67,3471.92C347.1,3471.92 349.885,3474.71 349.885,3478.14C349.885,3481.57 347.1,3484.35 343.67,3484.35ZM364.551,3484.35C361.121,3484.35 358.335,3481.57 358.335,3478.14C358.335,3474.71 361.121,3471.92 364.551,3471.92C367.982,3471.92 370.767,3474.71 370.767,3478.14C370.767,3481.57 367.982,3484.35 364.551,3484.35ZM385.433,3484.35C382.002,3484.35 379.217,3481.57 379.217,3478.14C379.217,3474.71 382.002,3471.92 385.433,3471.92C388.863,3471.92 391.648,3474.71 391.648,3478.14C391.648,3481.57 388.863,3484.35 385.433,3484.35ZM406.314,3484.35C402.884,3484.35 400.098,3481.57 400.098,3478.14C400.098,3474.71 402.884,3471.92 406.314,3471.92C409.745,3471.92 412.53,3474.71 412.53,3478.14C412.53,3481.57 409.745,3484.35 406.314,3484.35ZM427.196,3484.35C423.765,3484.35 420.98,3481.57 420.98,3478.14C420.98,3474.71 423.765,3471.92 427.196,3471.92C430.626,3471.92 433.412,3474.71 433.412,3478.14C433.412,3481.57 430.626,3484.35 427.196,3484.35ZM301.907,3465.86C298.476,3465.86 295.691,3463.08 295.691,3459.65C295.691,3456.22 298.476,3453.43 301.907,3453.43C305.337,3453.43 308.122,3456.22 308.122,3459.65C308.122,3463.08 305.337,3465.86 301.907,3465.86ZM282.961,3465.86C279.53,3465.86 276.745,3463.08 276.745,3459.65C276.745,3456.22 279.53,3453.43 282.961,3453.43C286.392,3453.43 289.177,3456.22 289.177,3459.65C289.177,3463.08 286.392,3465.86 282.961,3465.86ZM264.015,3465.86C260.585,3465.86 257.8,3463.08 257.8,3459.65C257.8,3456.22 260.585,3453.43 264.015,3453.43C267.446,3453.43 270.231,3456.22 270.231,3459.65C270.231,3463.08 267.446,3465.86 264.015,3465.86ZM245.07,3465.86C241.639,3465.86 238.854,3463.08 238.854,3459.65C238.854,3456.22 241.639,3453.43 245.07,3453.43C248.5,3453.43 251.286,3456.22 251.286,3459.65C251.286,3463.08 248.5,3465.86 245.07,3465.86ZM226.124,3465.86C222.694,3465.86 219.908,3463.08 219.908,3459.65C219.908,3456.22 222.694,3453.43 226.124,3453.43C229.555,3453.43 232.34,3456.22 232.34,3459.65C232.34,3463.08 229.555,3465.86 226.124,3465.86ZM322.788,3465.86C319.358,3465.86 316.572,3463.08 316.572,3459.65C316.572,3456.22 319.358,3453.43 322.788,3453.43C326.219,3453.43 329.004,3456.22 329.004,3459.65C329.004,3463.08 326.219,3465.86 322.788,3465.86ZM343.67,3465.86C340.239,3465.86 337.454,3463.08 337.454,3459.65C337.454,3456.22 340.239,3453.43 343.67,3453.43C347.1,3453.43 349.885,3456.22 349.885,3459.65C349.885,3463.08 347.1,3465.86 343.67,3465.86ZM364.551,3465.86C361.121,3465.86 358.335,3463.08 358.335,3459.65C358.335,3456.22 361.121,3453.43 364.551,3453.43C367.982,3453.43 370.767,3456.22 370.767,3459.65C370.767,3463.08 367.982,3465.86 364.551,3465.86ZM385.433,3465.86C382.002,3465.86 379.217,3463.08 379.217,3459.65C379.217,3456.22 382.002,3453.43 385.433,3453.43C388.863,3453.43 391.648,3456.22 391.648,3459.65C391.648,3463.08 388.863,3465.86 385.433,3465.86ZM406.314,3465.86C402.884,3465.86 400.098,3463.08 400.098,3459.65C400.098,3456.22 402.884,3453.43 406.314,3453.43C409.745,3453.43 412.53,3456.22 412.53,3459.65C412.53,3463.08 409.745,3465.86 406.314,3465.86ZM301.907,3447.37C298.476,3447.37 295.691,3444.59 295.691,3441.16C295.691,3437.72 298.476,3434.94 301.907,3434.94C305.337,3434.94 308.122,3437.72 308.122,3441.16C308.122,3444.59 305.337,3447.37 301.907,3447.37ZM282.961,3447.37C279.53,3447.37 276.745,3444.59 276.745,3441.16C276.745,3437.72 279.53,3434.94 282.961,3434.94C286.392,3434.94 289.177,3437.72 289.177,3441.16C289.177,3444.59 286.392,3447.37 282.961,3447.37ZM264.015,3447.37C260.585,3447.37 257.8,3444.59 257.8,3441.16C257.8,3437.72 260.585,3434.94 264.015,3434.94C267.446,3434.94 270.231,3437.72 270.231,3441.16C270.231,3444.59 267.446,3447.37 264.015,3447.37ZM245.07,3447.37C241.639,3447.37 238.854,3444.59 238.854,3441.16C238.854,3437.72 241.639,3434.94 245.07,3434.94C248.5,3434.94 251.286,3437.72 251.286,3441.16C251.286,3444.59 248.5,3447.37 245.07,3447.37ZM245.07,3428.21C241.639,3428.21 238.854,3425.42 238.854,3421.99C238.854,3418.56 241.639,3415.78 245.07,3415.78C248.5,3415.78 251.286,3418.56 251.286,3421.99C251.286,3425.42 248.5,3428.21 245.07,3428.21ZM226.632,3428.21C223.202,3428.21 220.416,3425.42 220.416,3421.99C220.416,3418.56 223.202,3415.78 226.632,3415.78C230.063,3415.78 232.848,3418.56 232.848,3421.99C232.848,3425.42 230.063,3428.21 226.632,3428.21ZM208.195,3428.21C204.764,3428.21 201.979,3425.42 201.979,3421.99C201.979,3418.56 204.764,3415.78 208.195,3415.78C211.625,3415.78 214.41,3418.56 214.41,3421.99C214.41,3425.42 211.625,3428.21 208.195,3428.21ZM208.195,3410.34C204.764,3410.34 201.979,3407.56 201.979,3404.13C201.979,3400.7 204.764,3397.91 208.195,3397.91C211.625,3397.91 214.41,3400.7 214.41,3404.13C214.41,3407.56 211.625,3410.34 208.195,3410.34Z" style="fill:rgb(197,200,213);"/>
            </g>
        </g>
    </g>
</svg>
